<mxfile host="app.diagrams.net" modified="2023-08-16T10:24:29.626Z" agent="5.0 (Windows NT 10.0; Win64; x64) AppleWebKit/537.36 (KHTML, like Gecko) Chrome/115.0.0.0 Safari/537.36" etag="fvzkTsZOXh2RDejO0Ubl" version="21.0.6" type="github">
  <diagram name="Страница 1" id="6Qw2g6OjpLgElVA_3M0Y">
    <mxGraphModel dx="1290" dy="565" grid="1" gridSize="10" guides="1" tooltips="1" connect="1" arrows="1" fold="1" page="1" pageScale="1" pageWidth="827" pageHeight="1169" math="0" shadow="0">
      <root>
        <mxCell id="0" />
        <mxCell id="1" parent="0" />
        <mxCell id="j9wAFBM-4F8-QUCNC5Rh-1" value="&lt;b&gt;&lt;font style=&quot;font-size: 18px;&quot;&gt;Sale of Coupons&lt;/font&gt;&lt;/b&gt;" style="text;html=1;strokeColor=none;fillColor=none;align=center;verticalAlign=middle;whiteSpace=wrap;rounded=0;" vertex="1" parent="1">
          <mxGeometry x="339" width="150" height="50" as="geometry" />
        </mxCell>
        <mxCell id="j9wAFBM-4F8-QUCNC5Rh-2" value="" style="shape=image;verticalLabelPosition=bottom;labelBackgroundColor=default;verticalAlign=top;aspect=fixed;imageAspect=0;image=data:image/png,iVBORw0KGgoAAAANSUhEUgAAA1wAAACeCAYAAAAmLQvmAAAAAXNSR0IArs4c6QAAAARnQU1BAACxjwv8YQUAAAAJcEhZcwAADsMAAA7DAcdvqGQAAFhmSURBVHhe7Z0HgFxVuce/3dmebHbTew8pdKSqlIBUERQrICqKBVCa4gNUFAtP8fkUsFDUJygKKgoqYkAinQQINQnpPSG97GZ7fed/zv1mzty9M7vJbHZnNv9fOMyc/3ynzc4993z3nHtuXrtBCCGEEEIIIYR0O/nBKyGEEEIIIYSQboYOFyGEEEIIIYTsI+hwEUIIIYQQQsg+gg4XIYQQQgghhOwj6HARQgghhBBCyD6CDhchhBBCCCGE7CPocBFCCCGEEELIPiKj53Bd+ojIXfOCSAoqSkRmXSRy3JhAiOD6J0RueS6IRHDGFJdHKnY1iJx5n8iL6wMhgu+faso5PohEMGu5yFkmj1QUF7g6zJwQCBHc9JTIt01IxUkmLfIoMXmlAu14zNQlFd+aacoxIRVPrXZ5NLYEQgT/MnU403ynqfiB+VvcYP4mqTjW/C3Rjkrzt03FBx4Q+dviIBLBVceJ3HpmEIlgrvlboh1V5m+biofON+VMDyIR3DpX5JpZQSSCw0a4dozoHwgRnP+gyB8XBJEIvnCUyJ3vCyIRLN7m2rFmVyBEcP+HTTkHB5EI7jTH2GXmWEvFtCGuHRMqAyGCix8Wuff1IBLBpw4XuecDQSSC1ab+aMcS055U3GG+h0vN95GKe0z5nzb1SMV4U3+0Y7ppTyo663M+Zr7HB8z3mYpNNa4db2wKhAh+Yn6XV5vfZyoeNr/r88zvOxXDze8J7Tjc/L5ScbX5Xd5mfp+peL/5XT9sft+pyJY+L9O+u8H0U2jH06bfSkWu9HmoQ7q++zrzt/iB+ZukIlf6vM767tfNsYV2bDbHWipyoc/rSt/9G5P+YpNPKnKlz+us737A/B4uML+LVORKn9dZ390T49We6POyZbzaE31eNoxXuwpnuAghhBBCCCFkH9EtM1wFxm379BEikwYGH3gUx0Q+epDI6AGBEAG8dXi6qZhY6a7ipAJXDP60UOTt3YEQwUnjRd45NohEsHKnyyMVsTxXh3EVgRDBc2tdSAXS4rvA95UKXFlcleaK2vHjXEjF2iqXR2uavyrqEPW3UuasE3l6TRCJYFS5yyPdlY+/vCWybEcQieCoUSKnTgoiEWyodn+PxtZAiOCDM0SmDg4iEby8QWT2qiASwbB+rh39iwIhAlz1WJRmVgdX9NJdOd9e59pR1RgIEZw7TeTAoUEkgtc2ijy2IohEMKjU/DZNO3B1LhX/XCoyf0sQieCQYSJnTw0iEeAK1B9NO3bUB0IEZ0wWOWJkEIlg/mZTj2VBJIKKYvf3GFwWCBFgVgZX0FMxY4i7UpqKmib399hSGwgRvGeiyNGjg0gES7eL/HVREImgX6FrB676puKJlSLz3g4iERwwSORDBwaRCLKlz8u0725pc3VAv5WKXOnzOuu7cdU83RXnXOnzOuu7MbOFdtQ2B0IEudDndaXvPvsAk8/wIBJBrvR5nfXdb20V+fuSIBJBrvR5nfXdPTFe7Yk+L1vGqz3R52XDeLWrZORw/XiOOwiLzI/0h6eln04mhBBCCCGEkP2NjByuZuOVqocNpyvfeNWEEEIIIYQQQhwZOVyEEEIIIYQQQlLDTTMIIYQQQgghZB/BGS5CCCGEEEIICVHdmNgwLN2jKDqDM1yEEEIIIYQQEuKhRe6ZlemeW9kV6HARQgghhBBCSIidDe5B6AiZQIeLEEIIIYQQQvYRdLgIIYQQQgghZB+RkcN1+4tuTeO5fxB5c3MgEkIIIYQQQgixZORwvbVVZNZykcdXJnbwIIQQQgghhBDiyPolhTVNImt2iSzfIbKuysWjmPe2yJWPuvDvFYFoqDX2SFvdEAiEEEIIIYQQ0kNkrcMFx+q+N0Uue0Tkin8ZR8oEvF7+T5E/LxRpbg0MA7bUiLyw3oW1xjFTvvOMS3vD7NTOGiGEEEIIIYTsC7LS4dpWJ3KzcZRunSuyaJvI27uNQ1Ursr7aLWO85XmRax93s1ed8dQql/aNzSKbjFPWU/xkjsiN/xH5sXmt4uwaIYQQQgghOcUpE0XueJ8LmZB1Dheck28+KfLvlS4+pEzkU4eJfOskkcuPFhlV7vTn14n8/GWRxhYXT8UFB4uMGSBy7jSR0UHanuDpNSL/Wm4cvtUi9Z3UkRBCCCGEEJJdHDpc5NKjXMiErHO4Xtog8tpG9x7O1Z8+InLFsSLnGIfpM0eI/P0CkeH93OePGYdm6Xb3PhWXHyPywIdFrjJ5lBYGokdLm0iDcYjqmp3z1mriPu3tIk2tzgbLGDVeb+wRwksbYYcAO6D2yFs1BWmRB8pGmrbQ54QQQgghhJDcJq/dELzfYy59ROSueSLFBSKzLhKZOSH4IAO+8pibHSoxeX73ZJGTJwYfePz2DbclfX6eyHeMzZlTRB5dKvLNp9znlxkv9JJ3uPdfn+2WJMLZ+sXZTlOw0cbfl4is3uVm1kb0FzlomMhFh4oMKnU2O+tFfvSCy+OIkSIjjc0L60TWVIkUGnd19ACRjxwocvRokQITv/hh86WadHAEG41DVRQTmTRQpH+RyE0zXRlwsp4xbcQsHpZJ7m4UGWzKO9h40ZiJmzrYtY0QQgghhBCS22Q0w3XGZJHrjhe59l0i4yoCMUNe2+ReMbt1sHF+ophQaZw848hgRghOUzqW7RCZv8Xd++WDnQyxmcajy9xnG4xD9cpGkd8ZZ+78B93OiKC5zTlPyOP3b4r8j3G+nl3rNuZYsdM5Tl8zTh1m5sACYwdbOFsAs1uLtzldlz8+sMA4X8Y5xHJD7KC4udbUwdj8aaHI1bNEttc5O0IIIYQQQkhuk5HDdd4MkR+cKvK9U9wsTndQ3eheMSM0oNi9D3PieJHnLzHO1udFvnFiIO4Bi4yDBccJzlBlicj7p4t8/kiRd40VKTSOHJ4pdttcNxPl02ocPNxT9kHT7osPF3nHSDcTtbtJZHZwzxnyQagI6l5u2vHxQ0QuOcKVhRmze153jtxQk9eF5rPPvUPk+HHOHhuGfPXf7j0hhBBCCCEkt8mqe7heD2a3AJbrYanivgCbWcCpwnK/a44T+drxzkm6xTiPcObA65vdskGfgcZhuv0skeuN/ZeOMelOcBtyAMx2AXW4ytXhMq8XGKfq08bhqjDpMbNWGzhyWIp4tSn/C0eJ3GycViw3BAu3iGyodu8JIYQQQgghuUtWOVxd2ea9O5izzr0O6+fuwcL9WXioMmaXpgX3T2GmrSqYbVOOGe2WM+r9VZix0lm4rbXutTPgdCkvv+2WMyItnEs4X199l1uiWRaxwQchhBBCCCEkt8gqh2v6kODNPkYfjIyHJWMLejxQWcP9CxK7Ba4OZq26kxPGixw+wr2Hw4X7yK6a5Tb3gMP53gNEPnawyMBg0w5CCCGEEEJIz7Nkm9t7ASETssrhGlzmdicEuhV7FPgMs1GYGdqbhwrjXizQ1OZmt7BToAYsNVR06V93gpmrb54kcoRxunCfWo1xsrApx+xVIt99xu38iNk2QgghhBBCSO+B25AueNCFTMgqhwtg23WAzSVSLdPDzoTYfv3jf3UzUnuKLtfDToh4PteX3xkdjh3t7Lob7Oj4s7NFbjtT5OsniJx9gNtAAywxzhe2xsdW8YQQQgghhJDcJuscLjyDCrxdI7IgtJW7gum9TebzXQ0iBw0NxD1AH5yMTTNOm+x2CowKeCZXd4MZrE8+JPK5v4scNsLtkPjtk0X+8jG3AyJYucttJU8IIYQQQgjJbTJyuFbuFJm7XuQlE3Q790z58IFuK3XcR3X3PJEXTd4tbe4zvM7fnJjV0k0v9pRjx7hX3Mv154WJ52MBPBcL04b//azIli5uhLEnYMkiNspAeH6dSGvQNmxHjw07FDxEmRBCCCGEEJLbZDSs/+mLImfdJ3Lu/SJvGkeoOzh0uMjRwVK+ddUiX31c5FMPi3z5MTcrhI0t9D6rD80QGb8XD1z+wHS3hA9O3X1vinzS5P/dp10ZX/iHe1jyrOXOodxbdIkg7jXDQ46v+7e7RwzP3FK+MVvki4+K/O8LIp82dZhjnEuAhzqneugzIYQQQgghJHfIyOGqb3HL+nY1JmahMiVmanTTTJFTJroNNOpMGVhC+Mwakflb3CYTeB7W+Qe5Z1vBfk+ZMkjkquPcvVTYQGOFcbD+tsSVga3g+xW6hxXjwcZ7y6mT3LPEsMEH7jnT2Sy7hPFg1zY8MBmfYcYOSwjhAOIetp+f7Wa8CCGEEEIIIblNXrsheL/H4H6ku+a5Z0jNukhk5oTgg24AW6S/utHNNGGZHxw63OM0Y6jbOn1iZbJTAtvfv+ne4/P3GIcH/HiOu9+r1NQR90r5YEnhU6tFXjdp9SHHR41y6THDBGcOuyD++lWTR63bWfCjxtFTJ6+uWeQ3r7m0cAJvOMHpAPWHE/f4CrcBBh5qjPLRBqSD8/hP8zkcLTh90A8Z7jbQGO896ytT8Odtbm6Oh7a2bvKMCQnIy8uTwsLCeMjP34urIDlCU1OTPY4aG7mrDSG9DfqeoqIiG9D3kAToo9BXoc8iZF+gxx5CX+bWuSLXzHLv229yr3tD1jpcJDNaW1tth1tXV2ffE9ITwNkqLS21Ae8xIMpl0D3iIgWPJUKym4KCAikrK5Pi4mLb7+R637OnaF/V0NAgtbW1Nk5ITxCLxeLHXl8474e5+xX3zF6w6Vr3ujfQ4epj4M+pHS4Hh6S3UMcLnXAuz3jV19dbR6ulJcVDAQkhWQUcr379+klJSUmg9H1w3sc5H+d+nvdJb4FjT8/7fQk8omrDbvf+8BHudW/ou2t/9kPQ6e7evVuqq6vZ6ZJeBVdaMQDYtWtXTv4WcSzV1NTYY4nOFiG5A47Xqqoqe/xmcD05Z0Ab0V5eZCW9DY49HYP2pWNvaD/naGXibAE6XH0EDHDxI8cVeUKyBdxDgMFALg0E1NnCAIYQkptgZrqvH8M476N/5T2lJJvAOBSO1/5wwWNPoMPVB9ABIpYTEJJtwOnCxQAMDnIBDNQQCCG5C86LcLj68rGMQS2dLZKNwOniRctkMrqH6/VNIqt3Ga8tT+RdY91Oe6TnwS5EuMqVKwNasn8yYMAAu747m8GxtHOnewAfukYcU7gBWO9DUw3ozcHQNKTTANKGNcShR2mIa9D8AGyVcJ5q15kGEE9Xtpbjaxo0P6AaCNcnStO0YTvE05Xta+H0URoh+B1UVlb2uZ3UMKDFhSxCspmKior96n7KdGTkcJHsYMeOHXYWgZBsBgOfIUOGxAfN2QYG9bhwodsoIw5Qbx28Y2mkxlNpqQb+YacDIA49StP8EKI0oEs1Oyuns7IBdL8c1UF3tzGdHeIaojQQlT5KIwRgwIeBX18B98rk6v2xZP8CFzpw7KFf3t+hw5XjYDkBOl5CcoH+/fvbHcSyEThaOJaiukRoGNADHdBDq9q1W6p2Vkk7nlqOQT7srD0cjJjosL/N6FbLC5wBxAM938TVQUCetnwThx6IJk9XJ6S3BBps4+VYzeURz9O8d+V4ZQc2Kcs25KGNIS1+wjRxWx/zn38SRRmw9evjyo6uT56pj7bRlmP+IQY9rpkAwvUpKCyQIUMHSVm/0riG4DtbiAONk/0X/Aay+WLPnsLZLZJLDBw4sM8/q6sr0OHKYfCn4w2zJJfAtrHofLNx4IP7IVLd7xE1w9PY0CiLFy6X5uaWuKbdqdoB1buqAdV9O9WBOn9qB3xbBI2DdHadaUD1KA10pT5d0QBeVQNJTp3n9MLhGj9pTNzWd7Y420XC4EIPLvj0BbDsmQ80JrkCbiXALQX7O33jcs9+CgYV3LKa5BJwXLJ1GUzUhQsM2rW+GLirM4Bjr9UEvEY5CL6G4KcNa0A1EE6vdqqp0+FrYVuN+3YgbOdrIJWG4Gt+HfekPr4GwppvC1AOQNwvB2AZtdr6jlWURghu4MfvItdBG+hskVwCM7K5fOw9vVrkmlkuZAJnuHIYDDiwBEoHIoTkAtl4Ey2Ooa1btwaxBOpshR0MvG9sbJJF85dZG+gVleXSv7wfPAKbxi4zxDI5xFUzdgh2KV2gGcHkaezy4XBAMP+DZoJRrG4x2WFZIkjKM6oco+GfX0502abtdrmhr3llQ8L/grQgXk6q+sAO6X0toj6wseWYuLW1mqtPkmZot31cnuzcvst+7ygD3/fkqROSHCv8bWwb6WyRCLCsMBaLBbHcBOd93LdNSC4xePBgu8IlF7l1bsLZar/Jve4NdLhyGN6/RXKR8vLyrHsSfdQgJmrwDucK76E11DfIW8bh0llmLG8bPmKofR+VFnHoYWfAzxOona+BsPMHospRzR9YRpWdrpxUZft5RpWdrpyuauGy/XKWL1ll75uDVjlwgEydMTmwis6TEJ++cC8Jlj1j+TMhuUQu71ZIh4v0qMOFnwmWMaCjxwBzX/5sMGDCgBxr7v2BF+kbZOPGGVHHkv7GMXjHe3UGNNTD4XpzadxBGTdxtHW4fAcBOojSovL0Nf+3Dw34dho0zygNII70qcrWcnxNg2rATw8tXE5Yw3sNe1K2r4XTL128UnbtqLKfDxxUKQdMn2jfR9UHcaBxQrA9fHFxcRDLTbA0Es/dJCSXyIXHwqQiKxyu2StF5m8RKTDnsw/MEBnDe+J6lJ50uHD1/4477pAnnnjCvs/gZ9MpuAI5Y8YM+cxnPiMzZ87kgKmPkSsOl486VRrw+6+va5BFC5aawb5bFjd2wigZOmxwfOCPTTVqa+vssjksiVNHQnEOBhyEQDBAExOP70ZowLK99nY4IglDlKHl+CB9Rw11TzgiQJ2bZA3tSHZQUHdTUFKeKBd6zNfwz6TvWn2iyu6ogfIB/W1/oPqSRSukame1jVcOrLAOl62PVw4+Q1y/n3CeZP+lLzhccLb4QFmSa9DhytDhuvQRkbvmiRQXiMy6SGTmhOAD0iP0hMOFn8f69evlyiuvlLlz59op4XPOOUcWLFggq1atknHjxsny5cvjS466EwyWbr75Zvn4xz/OLUX7ELnkcOlgHoN2DdAQ4HAteWu5+dx1oWPGjZShwwfb3+2O7TvlHw8/JjW7dxvnxPpQ8ASsHdwT/GcJaZATDoKnIWp1T3NiCg34eqCh7ojjfVQ58fRRmqFDes8uSnMi/mfw9c41RCdNmSTvPefU+He+bPFKqa6qsbYVlQNk8tTxVvcdK8TVAUvkSQgdLkJ6Czpc5pxmTk441+0VdLh6l55wuLC7zI033ij33XefjY8fP16eeeYZG//Vr34l119/vXzlK1/psMTh7LPP7vCgSfzU4KjNnz8/UDoH5aGsAw44IFBIrpNLDhcG7gADdwT8hjU0NTXbTTN0NgUO14hRw6zdKy+/IY//6z82LfCdAR/N0yfKNhMNhMtROxDWo9KCzsrpqga6Wk5BQUy++rUr49/xiqVrjMPl7l8ZUNE/vmkGQHq1o7NFoqDDRUjvQIdLuC08SQ8Goa+99loQE1mzZo2cf/75csstt9gZrssuuyxyPTl2g4LDFQ444e0Ja9eutQ5aeHBGyL4mnbOFzSN0OK+afThvYNfqPa4BWmFRoRTFQ5EZ9LmQ0ArjGmwLCws62KlW1EEz6X0NcRsS6cOaex+dpwZNm7CL0pLTRtUnEZyGEFVHxJEeQb/zlpbWkBPlvlP7nZtXdaz0e0/Y0dkihBCSPXCGK4fpiRmulStXWgcLjk9vgRm0a6+9loOoPkKubpqhQQf02KVwYYpNM16a+6o8+cSzVu/Xv0zOeO97pKiw0G39DlfN/Ie8sBwRt2bhHiv14Fpb2zpo1vkz1UHZLi2Cc0Ri+bGEHT7AvVgoJzhetN6IJzSXHjEtR+2AvYdM8wzK9vMM10c1Vx+jQQzyhO47QVqO/SageenB9m075Nmn5thNScB/ff3KeHosKdzJTTPIXsIZLkJ6h1ye4Xp0mchv33DvH/iwe90b6HDlMD3hcK1YscI6XOvWrQuUnueqq66ySxc5cOob5NqmGegiNei26HivuxTiPX6bY8ePkmEjhtjB/7yXXrcOFxhQUS6f/PTHpKxfmXNQDEgDO6QLa0AdB2gaorTw1u9w/uzsW2AHUpUT1jT4bdTQ1fqopulRTpQWLttv94YNG+Wvf3pEamvcoPKGb15jX8HSRStkl7dpxpRpEzqUjfcgXDYhdLgI6R1y2eHqLtwZj5AugIFLTwdCehMdzOuAXlHN/50aJdLBcLND6Z0O4Gt41TIQUmkK4kivzpai9VFbtYON2ml+IJwngpYdpWk8yi6qHL+NqiGoZm1RFaOFQVrI4TwR/LJBuGxCCCGkN0mcXQlJwxFHHCELFy60Oxb2VMCmHBwwkd5EB/S+I4PBPAKW3akGG7s8MOR0WEwcGoKzS3Y6gO7yqXYAdiCcZ7g+iCN92M7WMYUjEpWnr8GuK1pUWsS1bARfg41qABqAnpRnSNOyO9iZ0FnZhBBCSG+T0RlpYqXIsWNEjhktMiC3Z+lJJ2BAgwEMBno9FThgIr2JDvL936Fq+H0GY3xv4J/sDISBhvR6LCl6Dxg0vKodQNzXXDmJtKq7+iQ7HZpWNS0nbAei2qj1idI0bdhO9ahyENdyVANq6+cZJLUkl+M0xM3/Oy2bEEIIyQYSZ9m94Ipj3b1bf79A5NDhgUgIIX0Ef0CPwTxCeJDvHIRkBwMbUiiBGukMRM1sOWciemYrysGApviar/tlI2h+CKqpHTS/nChN04Y1LTusIa4agA5S5Rn/1pI0h2p+nohr2b4tIYQQkg1kdGYqKxSpLHGhgOc4QkgfwncG1OnQmSQd9Kca+Ktmba2z5ew0T9ips+VrWk48raf59VFdNd9W42qnM1stbfmyvS5fVm3Pkzc25MvcNQXy7KpieW5Voby0NiZvbcqT9bvypLYpZtJFlx2laTl+2b4t3u9JG3XXQsRBchudjvcwxHtNrzYAGtqteRBCCCG9Cd0kQghJg+8M6IAeYAv2pO3X25xteOCPG5J8DcAOhJcCAt850eCXjbQIvgYb1RB8zdRI5qwpktueKZEfzi6RW2YXy+3m/Z0vlMkv55bIXS+UyM+fLZIfP1UsP3yynwmlcs/LxbJuZ55tY7iccH20HMSjNK0PgA40veaHEM8TJoEd8PO0W9mbuGogVbt9G0IIIaQ3ocNFCCEpwMDddwbUObCDfAz8k5a++Q6Gs7XALgjQ/JktoBpefTsNWrbaRmnqYPjathqRp1cUyX/9o9w4W6Xy8toCWb0jT3bU5UtNc4E0tORJc4tIU0ub1DeLVDcUyJaamCzdEpNZiwrkun+UWqdskYnj8/B3oeXY78Joqvv1gebb4VXrifca/DyN4F4Nqml6PDMsntbOHHZst1+26oQQQsjeUNskssmcTxEygQ4XIYREoA5CeOAO3dfs4N8EdQac6F7CRDkDSAtU0/wQfDukjSpbNQTQYvy5J5fF5MdPlcr/vVQqG6qMbsvQ+8q02/c1PDw5qLubYpLW9pg8sxIzX6Vy9wtF8nZVx3rrckVF6wNN6wOgAU2v7UPw87RtxFShifrlJNptJYum1XLUDuk0LSGEEJIJDy8WOes+FzIhcUYkhBASB4P2sIOQGPgbzVo5HRh/y7N1DgbiOvTXmS2rBXY6sxUuByG83DDKzncwTNTORP31jZj834slsmJHoTS1mvT4wDpW5jUPu3+KjK1olfIi1Aef5cuUIW1SWWpsbL0RbGNs2up6kedXxeQH/+knCzYVSCvMgrJRR79OWh9oAFpUuzX4bURaaPn5ePBydBuB6mHNLxuvakcIIYTsLVvrRF7f5EIm0OEihJAI/AE9wIBeB/MWM5bHZhhANR34+zM0IMoZSOUgIKjDAtQ2qWyDamq7tVbkjucL5aEFxcbRCtKbtMbSvZeYFOS3yxnTm+SqE+tkeDnq6Wa2TjmgWa48oU5GV7RYO2gurabPly01+fKz50rkiaUF0mK8LtRF6xNuT5SGV20fgtoB2MW1RBMt0OJ5Ihg7W3ZgiLiWg6AaAiGEEJINJM54hBBCOqADenUa4hru2YJ/oAN9M74PD/yBDvx93bdTTZ2EDuUEZSu+pnbNrSIPvFIoL64pktY2WykpirVJRUliFgvakWNb5COHNkhlqdFR+cBpyTNO1YxhLXLlic1SXmIlQ7vE8tpkSH+tY57srM2T388rlBdMOeE6Iq4a6GobYadaHBNXktKmcfQ0qEYIIYRkC94Zbs+542WR8x4Q+eifRBZsCURCCOkjYOCOEOUE2QE+/nmDfLx3jkNiNseI8fSIRy2xQ1q8RpWjmm+rcVDTKHLn88YJWl1oPjea0UcOaJVPHdUg5cVwXNyM1eiKVrng8HopLUQ5MVPDAOM4Ygkkypk4uE0uOrJBSgpQxzZpbc+XQ0a2ySlTm6UgH05MqzS05MtvXy6RF9cWJNXHbyM0oPVUDa9+G8Oa1U1cUbt4Od6ukEaNl60hbmfe++UQQgghvUlGDtcbm93NZH9fKrKtLhAJIaQPgMF72EHwB/ROc4N8hISWGrUL54kQdkQQoCmwUc3X56zOlxfXFEqbcY5MBjLKOFtfOK5O+he3yZbaAqvF8trl9GmNMqy/OnBB4uCerTw4YIF4xJhmGT8QSwtdfgs2xeSs6U3y3ukNxulCuXmyuzFPHnqzSKrqOrYb9QR+e1K1MbLduEnM4KfVdofzQ1yD2mmcEEIIyRYSZ21CCCFxws6AP6C3ulMTA/9g9gXxdmMHrG7fJRwMqwV2qkU5E6r5thpXu+q6Vnn0rWJpCpYRGlFG9G+RJVtj8s9FJW7TDFPHolirbNudJ48uLpFHFhbJrEWFstNeJEM9Y/Lm2wXyjwWFJhTIk0tjkm/XSjrnautuMWXEpKggTyrLIKEckdXbRR6aX2zeunqiProJSLjeePXb2Fm7jRiPwzbKDnVTXe3w3tecHSGEENK70OEihJAIwoP8jg4PHAfnXPhYZyJ4r6gDFnYGEPxykDbKwVANQbWmlna5d16pbKh2u/oZ0by2yasbCuT+V0tl6dYCWKJwqW/Ok3+8VSL3vVIivzPhj68VybZa5O+WG85ZUyi/m1dkQqHc/1qpLNqSSIs8/7OsWB58o8SkMeXbcoxjZcqcvbxYFm6KWQl1Qp270sYoTdtovD2rKb4dSkZaENdMHGkRVw2oHSGEENLb0OEihJA0+AN635mwm2YEg3w70Dfje70/K9+f7UIwmtrFNRP2dOt3tWttbZOV2/Nl7poio6BslOCcOt150GrWYYJmuvokDSGVhtMCdPPia2prnC37uSmnybx9flWBcf5SP7g5eut373sMaYFXZe2BprX5GVsAW6DpYROVJyGEEJIJJ40X+cmZLmSCO2sRQgjpgD+g9wf+VjPvA8mis11wMOCQxAf8xibsRCGo0wA0z7jTEaCa2qodZpcWbi6S5jZja7S8vDaZPqxVZoxol2nDWqRfkTpQYt7nGc18NrwlCM0mLlIKX83SLiMHQG836duczbBmmTQIG2XYVlorPLtrxvAmE9pk3MCgjqaJizfjni5Xx3RttPUONP+7DGs+vh3SGyHJDhrivtZZnoQQQkhXOWKkyNXHuZAJdLgIISQFOqD3nQlfU8fKOgOIRQ7wOzoD4ZktzIyFHRHkGXYatOyW9nxZtBmOnVXloJGt8q0zG+WmM+vlv06plzH2eVqGvHw5dJT57PR6+ebptXLjabXyrTMa5bpTYdOKgmz6cw9qlZvOarDpv3V6nbX78smNMqifKduUZ1opZ01vkG+eAZtG+crJ9VJWiDa3yubd+bJ6Z2FS3cNtRL2h+e2J0rTdQDWg7c43Aa+ujOS/jdqF8ySEEEJ6GzpchARgoLZ7927ZtWtXUmhsbAwskvnxj38sP/nJT6wN6XvoIF8H7uoM6CBfgQ7yY74zkFjOpsN+3xlQNM+wAxZVNpwy1Wqb8mTtTpNPe6sUxtrlvINbJGaisG5sFqlpxDuUkycTBxtnLs84MSaPmDGyyx2RqV27h+WBzjmxmrFxW8TnSUWpmGBsrNYqG41jFbOOjMigsjY5cLgpyKTC7ohPLsOW9K7e4Tb6mrYnStP0Nu5pfrtVQ0DZnZWTC6B/QR+Cvse1K0Ftba39rKUlcKADmpubrV5VVWXb3RkrVqyQ2267Tf74xz9KfX19oBLSd2hoaJCdO3fKhg0b7LHUVXbs2GHP4wiE7EsSZ6u94JSJIlcdJ/KlY0TGDAhEQnIUdNjf+9735IMf/GBSOPvss+VjH/uYvPLKK4Gl4//+7//k17/+tdTU1AQK6UvoIB8BA2F1BnQwj6GxDnZVA3bQHAyc47YmHnYGENeZLUXLgRZ2JrRsBDhbVfUoo10G98uTURWuHrCra2qX+hZ3HxdWBI6rdPdXhctGsKcAT/OdG+M/yiA8IDm4Z2trDTbScOQbbcoQ56wh/esbYlLf3LGNqI9qiq/59dF2+xrQ+iDYFhtd40qqPDWPbGbhwoW2n/nGN74hdXWJ56ugP7r55ptt3/Pqq68GqmP27Nly3nnnyaWXXpr0PaTi7bfflnvuuUceffRRaWpqClRC+gZvvPGGXH755fY4uvDCC+X973+/PT/jGOoMOGc4jyMQsi9JnAX3go8eJHLrmSI/Ol1kyqBAJCRHweAMV423bNkixcXFMmTIEBvwftWqVfKpT31Kbr31Vg5Y9hN0UK8Dd7zXAT3iGOT7dvAGdOCftEU8/tlZo44Ohs5sqS00jaud7wSp3ZLNwSA7r8A4XO1SUmDsTNo281mDcbbso6zM+zxpk6H9THpTtjGGZMow5bTCETF52A0ygnJMeldHZyt57dLf3gvm7DCrhk0ysGEHqje6Eh+ZNyZts9E2VSfu4wJhJwghrOE9QrjdPkm2pu5A7TRtOE9oCLkA+hj0OQsWLEi6eIP3S5YssVfsn3766aT2vPnmm7J161Y58cQTI78zQvYHMPP717/+VT7+8Y/bY6Jfv372eMKxghUo1157rVRXVwfWIs8++6x1zH7xi190mDUmZF+TkcNFSF/l85//vNxxxx023HXXXXbma+jQoXLvvffKiy++GFiRvo4O3oE/sFVNdyME2LUQYOAPJwVpLeZFnQGAtDqzpZqWA82lT2iw0QANYe0u3L/l7N6uypc7ni+S254ukduf7Sd/eK3EOkcoGM7VH14rNZ+Vyq3m8588XWxei+TOuWWyqSa4B8zk9++lMbn9mTK5FcHY3Wrsbjd2CzfjwcmuPat35lvttmdcOf9ahF030Ea0u1121O/5PVsg3G6LsfPR7wIk0rrvIpxnlJbNjBo1SsaNGyebN2+W5cuXB6rI+vXrZeXKlfb96tWrkwaI8+bNs6/HHZfhXdyE5DBYKvuzn/1MysrKrCOFczXO2T//+c/l8MMPl6eeekruv//++LGDJbjPPPOMLF261PYRhPQk3hmOEKL0799fBg8ebMOYMWPk5JNPlne84x323omXX345qbN+66235H/+53/kS1/6kl0CtHjx4vjgEGBZw9y5c+W73/2utfnBD34gTz75ZNK9YY8//rh89atftVfrHn74Yfna175m47/5zW9k+/btgZUbTGJg9uc//1muueYaewUPJ5SNGzcGFqS7wHeNvyMG7Tp4hwZnCeB+JnWs7O/B/AebDoN8G092Brpyz5avIWhasKPOlA1bE99Z1y4vrY3ZLeLnrimUtzbmS4udwTIOjuniX1lfKHNWF5hgbFa7reTnrSt093nZ/LDFfIHMXevSO1vYFcqm3W7HRdjtbkA5xk7L2WQ+s04m8ohJvXXyoh0rrbv/PSKkajdyVN23S940o2OeUWVnOwUFBXZ5IEBfosCpQn8DMEDU5VHbtm2zdqWlpXLggQdaDbPuc+bMscsSr7zySnu/FvopTa+gz/n73/8uX//61+XLX/6y/Pa3v7X9CSG5yH/+8x87Ozxjxgy56KKLZPTo0TJs2DA56KCD5HOf+5yd8XriiSfsyhWcT3EPI8Ay3htuuCEeV7A08b//+7/li1/8otxyyy3xCx4K7qlEmTfddJM9l//0pz+1x6aeE5Avyrn77rvtxdlLLrnEvhIC6HAR0gUwQC4qcvtoYxCDQZ1y44032k5Vr6ahk50/f779DDeo/+///q9cffXVtnOHM3bffffJFVdcYa/G6fJELA/617/+ZZcsYtCEQRHiSIsTgA6c4HzhRPHtb39bXnjhBfn3v/9tnTwMsnzHjGQO/sYYtPsDdx344/fgEx74YwmhoqmRFiHsiKiG4GtadiJP95tDvKXVpLdxLcfUJ8jTfBCEsAbbwFEDNn1wH5bW0td0aWE8LQjSx8vGqysHMdQb9fTbGNVu0Fm7I7UguX4Xfp7QwmXnCu9+97vtKy64KA899JB9xf0ouKCCJYdg0aJF9nXmzJl2uTOu3sPBggOFizWvvfaa/PKXv7SDRvQPPliiiItDf/vb3+xFHrxH38Rl0iQXwe8ZfOQjH4mfnxU4Xbhgitlh3MOI8ymODYDjadasWXYZog/uifzDH/5gl/D+7ne/ky984Qv2dgKAc/ntt99uz7UPPvigPZfjHH7ZZZfJ888/b23g2KEcjAdwbGE1TPjeb5J7rNgh8vBiFzLBnekIIUlg4IarVghwdnBVee3atfazysrK+CARnHbaabZjxRXlE044wS5bwM3pyOOll16yg6DCwkI7W4WrbejQMYOGq2DotH2w3hw6Blf/+Mc/7MD+sccesycI5IcbgZHnhz70ITtgQrl4j0EYZr1gQ7oHdQYweNffg+oAXzV0BHUGNK5aKmdA4+kcjLAtgmq4b0sdnv7FeTJpcJtMHtxqn52FZ2phqaMxNFVqlwkDW8znzTJ5iJjQbuzajNYqxQUJx2poebtJq3Ymr8CussSUETiPJYXY8TAoZ3CLjK7AvWVYcmgbLsX5yc6WtiWsqY44AkjSUPdAA9A0PYAdwL1m0DQtXn07xDWPbAczVSNHjpR169bZe7aWLVsma9askVNOOcVumoE2YSkU2oN+RtMgjj4AA7zhw4fLX/7yF3vhBxdqMCOGPkF/twDvMXuOQSD6IswM4OLQI488ElgQkjvojPAhhxxiX32wzBDnXThKCDinYnUJOPXUU63zhYuVPnDccGzgGDv++OPteVdvIYD973//exkwYIA9p+P4wUwXzvdY1ujfKwYNK1BwAQXHG8lt/rFU5LwHXMgEOlyERICO8vvf/74N6DBxTxeWGxx66KH2irPPZz/7Wbt0AUt83vnOd1oNHS6uPD/33HO2s7/gggvkyCOPtJ8hD8xSgfBA55xzzpF3vetd9v3EiRPlPe95j32PQRiWTmAJ0MCBA+XTn/60HTxhVzMsd8RJAHntyXa4pOtgYItBr85s6WBedTvI9xwwDPwVoxht72d4EICf5wjjVFnyYjJlaJtce0q93PCeWhPq5OJj8OBj1MfUI69dvnh8nXzttCYTGkyAXZ1cfWKNcZiQ3uV59vQmm/5rp8IGtsbu1Ho5cqzOfOTLhEHtcp0p5/qgnAveofcUOedvYFlyG/3vYk/b7fJ0+O3GpiAgXEa4HOSHkEvo8kBcUdcr79OnT5cDDjhAJk+ebK+c48IPrr5jZgs6+ph//vOf1hYDRFzRR99zxBFH2H4GA0dc4VcwMD3jjDNs+hEjRsh1111ndSyN8h0zQnIBzFylAg4XluuCdHY+mL3CsYFzOe4BA1hJArDqBMBm0KBBdjt5HGN4j+Ny06ZN9nMFG3lMnTrVHmeEgMSZjBASB47SAw88YAMGOrjy/MlPftLuboQryT7aqQNcpfbRjh7LG/yB41FHHWVf//SnP9lXxc8LVFRgVOxAHQAGVLjqfdZZZ9mANeNwtHB/hn+VjWQOBvIYiOLVdxoSg/yOzpH7Oyc0+A75xjFSoKnT4efpOx0Imh+Cr6E+UwYHs1OmnJpGkcL8NuNktcmAUjf7hWdz2YKNo9fWHpMBJSLlxW7XwX5FrSZunMdgJslkKkWxFimHTWCHUFrQKs3WpzLlmLLLi9ukoqTV5oFy6ltMfWwZrqxRlQlHCG1BXf02Ih5ut2qIa0CWNoTQPON2KN3Eo8pRLZfAxhkAfQ9mt8vLy20/gav0cLywZBhLl3CRBTux4d5SzL5j4Acwc45HWKBPwIUbXdbs34eC/sX/XsaOHWtn7LGkGc8wIqSvgGWyehEBFyK6gn/+xUVUH4wDwI9+9KP4uRf3jWEWDMcPLor6lJSYzpQQj4zOSOuqRF43Tv0bJtRwCTjpQ+C+BtxrhYBlOljW95WvfMUOTnRg1xV0cIMdDn20M/Z3HusMDCIBTgQYgGnAlXFs6HHwwQd3cNhIZmCQD3STC/wNfGcCDk9Y8wf+FsTxn5ce7307/A5U8+1AVJ5ThxmHKLhlYcvuPON0JcouK2yX4hjSGmfLdPEbq91vMKlsz9nCPVtYnqfpYYeBCnZg392k94HheV8YvLhy2trxLDDzWbBpxvThcObMW8RMeoRwvVF2lGbrEwSbNmi3agB2fp7WLgid5ZkrYMYKxy+2rsbgDbPWcKrw25s2bZptC2azsF08LsToIBJtBnCe/H4BV+gxqx4eOPrgu9O+SPMhJFfQex+xcUUYbHCBCxKYscKxlCnqvGG2WY8xLMnFuRehO8ogfZuMHK6fviRy1n0i779f5E1udET6EOPHj7cDFgQMdnBFObxRQlfQ5QTh3Y5wfwaAk9RVsPsSwMAKN++Gw3e+850Ojh3Ze3TgjkGpkjzIT2ggPPAPA02dDj9P1dRB0DKAr+lMG2zLS9plDB52bBye6oZ2eXNjUbzsIuNs9S+G05JvXKE8Wb0jZpfi+Y5IAgwikjUtu7U9X3bWu3rmmXJGD0hsZd/QLLJoE9JgxilfTj4ATptri98egPxSaYhrUM0S2AFo2u6E6kiVJ/RcA4M3OEeYycbyJCxHwmw62oMlgtgUAPeTwOE67LDD7H2gcNB0oPeJT3wisl/QpcxRYNZMl0IhP0JyCRwzAJtVhTd+wdJczNriokV4VcregCW7ADsDRx1nWF5ISDoyOitVN4psqjGhVuwDMQkhyeAqGJYE4bkgeK4OBs24Fws32WKwhCfjdxU4XHC2cKMwbtrFoBKDJNwjht0NcVMvBp2ke9CBu+8MxAf+0IyN7kaIuHoDsNG/A3TImt7GYRto+D2ohuCn1Vk1oJqWXVwgMm0odq5E+TH5yxvF8ss5CEXy+3mFsqMOM1Po3vNkzpqY/PKFQvn1i6Xy65dK5Vcvlsi9LxfLlt3IE/WOyTMrC236u43dr0wev36pzNiXyObdJo924+iZf69uKLJpfzm32HxWLKu2u7RYwnjQ8JZ43f3vDAHtVg2ohnj4+8V795BmZ6chnB5BN81Qzc9TNYRcARdnMNuEdqDe2IxHL/JMmjTJOlb6Ge4VRVvRh+BeT4BliHDGcP8J9FdffdUORJFGwRJnXPzB1X8sTcZuawCbBSAdIbkEHvyNe5oxwzV79my7SyCOAcwQ//rXv7ZL7OEI6WwwzsUAKwpw3tyT3TmPPvpoezziOV9Yvo9zL45BLDXEDsS6kzAhqcjI4SKEpAebXuDhpDgBYCt4BGwji5vZMXuGQVVXwYAIuyzhap0+9wv5YftnbCFNh6t70cE80O81yZloM8FoiKstdAxw9XlRim6a4TsD6iBoUA34aXWQ7Tsd2IT9QOPkxPLdkr/qxnz595ICE2Ly5Ipi2Y7ndKF2ptzN1e0ye1mxPLG0yHxuwuJCeWpZvlQ1GJvg3rK3Nsds2ieWFsoTy0qs7bMrCqS+CfVBK2Py2oZCY2PC4gJ5bmW+nQEDBwxplYqS9Fu/qxZud6SWSG4Jp0fQOEBaTR/+fnMJ3LOlG+YA/z2crdNPPz2IJWbG0V5syIN7vbC72lVXXRXvE/B4Cdzz5X8PuN8EG2XgcwQ4ZLiIgzSE5Bo4Di688ELraH3ve9+zDz/GeRHbu2NzGdw7jbhuGa/3Sb7++uv2WMHW710Fm2Vh+T7O3TiH63H2wx/+0F7c0OfkEZIKd3YihNgBG65a4YqZXglLB+wQdJAHkA6a3jeBe77gHJ177rl2+Q6cItxgiyvUOEHAFuCEgPfhq8yIQ9cr3bhahwcow+nCU/axcyJumseuhTiBdKXepOvowF0H+Qg66EfwHStMdsHW/h462EU7HepMqB3wNS07rJk3cvCodhk3MHCI7EwbAsrG79GUZfPzNJRvNbeMUJ0tqwUzdXE762QFecef56V2JiCtsS0w5kePazaOX8Kx0rbodwENqIZ4uD2+ZotEnQJ8OyyNRNzaGbQspEVQLVx2rqBX7LGTIJYx++AmfXyGCzW6vBhAu/POO+2GGZg9x2YZWE6FpVToK9AXYcYLdrhKD+cNfQd2L4Sz9c1vftPutEZIroHzJpwfPKQYxwse3YLZLsze4pEKWEniLyfEEkRcoAB4lAoe+o1+AscGgg/u/YKm53Lkj8ct4NyNczjO5SgPxyOelYljSI+zcF4ktyk2p7uKEhcyIc+cnBJntj3k0kdE7ppnKlMgMusikZkTgg9Ij4BpbVzZ2ZfgxHz++efbe4OwCxYciJ4CU/Wf+cxn7Das119//T4fPGF5FzpgXKlC59rZTbB6XxYGNnoFDUsYsEUsHDd8Z1pnLGFA3vgMHTNOApoGwBnDSQKdu3+CQBos/0FeuAKuYNkEPkO+GHzhJnodcGY7+G70JJYtpDqWMHAHOsjXAT5CU2OTLFqw3NogPmbcSBkxapi1e2nuqzL78adt2orKCrn4sxdIWVlp3BnQ/DTPsAb0Jm3fcdCyVFu7M1++93iJ7KpHNw6nI08OGdkqpYVtsmaHyMZqbKKSZ+/5mjasVQqMs4UNM1ra8mXRlgK7wyGcKDxba1g5ykBol221Isu24r1ztg4c0SLlRW3ydpXIul0mT+vUiRwztkkuf3e9lBYl6u23R3+Te9LudWs3yF///IjU1dZZ7fobr463e8XSNVJd5R59MKCyXCYfMD5eRjjPXDkefHCs47jGsR6+HxO/UcyUYyA4evToQE2A5VEYCKIPQj+Nfga2ALuYou/BBRzkDTssgYINBoe5+F3tDfhe9DvJVdD343dCEuC4R/+Ni484DnCOwRLdqAuQ6B9w7sb3iBkvnIt0h0Es3VVwPsZ5OXxOxnGDCxs4nqBjrABHC+jxC/y8iJulz9VlyxvNKWeNOfeB48a4171h/+hlCekCmEUaNWpU/H6JzoAdgu84IR00OEE6gATokDFIws3uuKrspwFYY450fscOEIfuO1sAJxTsloQNPfanAVNPgpM4Av6O+rdULXx/lbUzfwP/b674iu8M+OmBaoh3xdkCYytb5ZQpje7vb5wg7B6IBxJf9s46+eChLVIQM3bGNmY+vvCIerl6ZqNcM9M4Scc3yMhyU0Yws3XatDajN5hQL1ecUCdThrSYdHCs8qTCOGufO7ZePnFkvYm6mS0wtF+rfPKoaGcL9bF1Cgi3W+18DaDd2KUQcdVgm2i3ldx30Zb4LhBSlZ1LYHCH4z1q8xs4CvgsytkC6FPwGa7i4/EUvmOB/gP3emEQijImTJhgd0VEv5Or3xUhCo5/nAdxTsTvH+fYVKs98HufMmWKnZnSixI4rhB8cBETWvicjHz1XI7jSZ0toMdvOC+S24w0wy84Wpk4W4A9LSGERJAY5CcG86rZz23wnTIrx20BdEfyBhlW8ez8Qa9qvlPnlw1N0yKcPLVVpg9DGlMj40DNXhqTRxeVyKTBbTJygNGNbVVdmzyxrMg4ZEE5MNVlhMFpQPPcVJ0n8zfqBYF2OW58k+xuELljTj9Zu8s4XIaSgjY558AGGVresT3hNqZqN+JR7c4Pls/CTm213aqD8DPQouzUlhBCCOlNEmc7QgghcaIG775mBDvLEo8bdOAPzdfbWhMzZQi+M+Dbxp2OkCMSLlvTQxvWX+SKExrs5hXGWhpb8uUv84vlvleKZbLR8gS7DObJk8uLZfEW58y0BuXYU0Aoz/8sK5a38ewu835gSauMrWiRX7xQJgs3ubT5pozzDm6wjp5fH3V4tO6qafsQwppiZ7bMZzZtQrYkt9vl6+Idy1ZUI4QQQrKBxBlqL7jkCJH7Pyzy2/NEDuTjfwghfQwduKszkBj4G90EdRwQTLSDMwE7hGS7hLPl56lOh85s4X247CgNyQeVtcmnjqo3DpbJNy9fWtry5LX1BfLaOvMhDPJiUt+cJ795qVhWbLXFWTv7GfJsb7PP1pptnLJ/Li42cRgY3fz/Ny+XyabdcLbypLSgVd53YKOcfVCLFBck2hLVbtXCdY/SQPy7QNlGV6xmcGVFf7+J7yK5HLUjhBBCepOMHK6jR4ucf7DIRw8SGZZd98ATQkjGhAf0qsE5cjsUWsnZec6EahZjg40q1BlQ3XcGfKdDUdtw2VEa6jN5SJtccUKTHDu+2RSJMlqlqiFmPtc822X9LpE7XiiR+Zv8ewiNA2c8rL8tKJH7Xy2x77E0EfZV9TFpDZpRVtgqFx3ZIB88rFmKjLOloO6oj9/usMMTpQFo4fagXKVj+uR2a56Kr2l9CCGEkN6GZyRCCIkgyhnQAX3i/qqEE5U8yE84DdbjMqgd8PPc25ktoDq0WCxfRlW0yaXvbJCzpjdIZWngsCAYOzhReFm7s0Bue6ZUVm6LGQ3LENvlnnml8tCCYqnFroW27gimLSZtoXmZMqRZrjmpTk6d1iplRYk2o2yUEa4P4uG6R2kgrLW1Gt1Wu2OegWQ11FHT+unxHjohhBCSLfCsRAghKdABPdABfVhDsIP+fN8ODoEj8BGsDjQt8J0ORfOMKieswVmzZXtaSUGrXPCOZrn2lEY5fXqzFMVQhitHnShjaJcROmLS3GZ0ozk7BOOMGbNJg1vkkmPr5eoT6+SQkXrvlEO/C607yk44Ron6hDUALao9VsOWip6TGpUnghGSNLXT+hBCCCHZAs9MhBASQdgZwIBeNTfodzriHQf+zrGytkYPOxh43x0zW0gbtsX74sI8mTq0TT5zTIP86Jzdcsa0JhldKVJSaFypfFNn61TBaYFjhTyRf7sUmFBRmiczRrTKZe9ulG+dUScnTW6Sof3hyLgy/HLC9UE8qj5hDaRqoxHt54gDaHHbQMd7/MN7Ta/lAGj6/RJCCCF7y3NrRW54woVMoMNFCCFp0AG9DvoVzBDZgb9qZmyvA3/V7IDfBETVGQDqCMBhUqAhxJ2LIO5rahdVTpTTAW1o/3a5+NhmufH0ehPq5IvvrpNPHt0oHzqsVd5/cJN84JBG+ehhjXLJMfVy7SlNxslqkOvfUy8nTWqUovyIdgffRbiczuoDoCNonhr3tcCrcgkMfp7hZ3SBVO32bQghhJC9Yd7bIj94zoVMSJwJCSGEJKGD97DTYAf0+OeN6XWQ7wb6zplQdLMHaDrz4ueJtKqpo4B4lJZcTrQGoAOkj+XnyaCydpk8uEXeOb5Z3ntgi3z08Ca58B2N8rHDGuQDBzfY+7OOGN0qYyrbpDjmzTgFdKVshFT1gaZ5qo54WAP6zfl2mmeC1OWolmxPCCGE9A50uAghJAId5KszgOAP/LHETh2rtIN8Lw47kNh0o6Mjovn5GkguO9k2rPlOnW/na+Y/E3dLC7Hhhmod7fKshgANIVwfDb6m6UFX6gMS6Ts6W2oXT28C3vt5ohy1QSCEEEKygYwcrmfWiNw5T+RXr4i8vTsQCSGkD6DOgJJwBtwgX4EOkrZ+N3ZK4DZYZwD4aVM5HVGalp1OA9BBujw1ra+BdPVB3Nf8shHCmgINpKuPapo+/q0FGuwUTWtKSdLD9SGEEEKyhcTZai/4w3yRyx4R+dK/RJZuD0RCCOkDqDOA4DsDOsg3kgnOmdABvjoDQNMC+2wrQyYbZCAetg1rezKTFNai6oMAHRoCUA02vm2m9dH0/m6PQO1sek/304ZntjQ/tSWEEEJ6k4wcLkII6evo4B0DeQz+45p1thKDfHgD0BHUaQBWM6+aFqhdlNOR0hGJ0MJ5qoZXxDX4mjoifjlRGkhXdjoNQAd+ntDC5SAtAjQER8JRSkprHFfE1S5cNoKWgUAIIYRkA4mzNSFpaGxslHXr1snq1at7LGzZsiUonZDewR/Qdxjkm/dGjg/ycU8RXt3Og4mBv6bBLExLS4s0NTVLc3OLySOhNTc7DeaqtZh4s7FVh8Tqgdba6jRrZwKOT7zG7YL0ePXLRhkoy7dzZUNLrk9TU5O188vxy/Zt8d7XkDZVG5M1p/tpW1vcrBjAdwsQhw2+dNWMajXENcBOg3+fHCGEENKb5JkT015fBrz0EZG75okUF4jMukhk5oTgA9IjYJC1a9euILZvWLFihZx//vnW2drTwUtBQYENAD8zHVh1Ff1pXnXVVXL99ddz8NRH6N+/v/Tr1y+IZQdRxxJ+fzqgj5pRaWxskkXzl1lHAfrY8aNlxKih9rOX5r4qsx9/2qYpLCqUCRPHOUfM2MHWzYAFv2fV8PuO/8bVWfNnjQI753UEGpKbY8qY+nnatLD1y9H0Nm1I8/M0cfyDjZPwP2dnY3neLJT9D3l61+6QHnlGtTGqPoh7bayrrZcNGzZKm3HswHXfuCr+na9Yulqqdu226Soqy2XKtIlWR4CmAX+vxPdGiKOyslKKi4uDWG5SU1MjtbW1QYyQ3GDAgAFSWloaxHKLhxYZX+cV9x6+zt5ChyuH6WmHa0847bTT5Pbbb5eKigobx4Bp1qxZ8sUvftHWe0+gw9W3yBWHSy8OJJa5udkn/A6hNdQ3yFvG4cKsDBg/aYwMHzHUDvhfmvOq/OeJZ5J+s35Xq3omGkhnG2XX1bQgXfrO7EA623B+IJXdf339ShvHd75s8UrrcOFvUzmwQqbOmGTtADTYuxlGQjpCh4uQ3iGXHa7uwrssSUhHdKCzJyDNDTfcYE9uSIuAma73vve9ctlllwVWXaewsDB4R0jPob9dgIG8OlsJZ8AM8iM2zcDAf+CgCikqSvxuw84E4mEN7IkW1sOa0pm2J+WAKDsQ1sNpo8pRUuU5YuQwG4//HUxQR9jPT50ttQOIR5VFCCGE9DSc4cphemKGa9OmTXLRRRfJggULAqVzMBB65JFH5MgjjwwUB35qN954o/zqV78KlM5BXnfeeaece+65SQMxkrvkygyXj+9sIeC3XF9XL4sWLDODfSypy5Ox40fJkGGDrD0+X7dmvWzbtkNaWtvQ0brfL0LwOYLvIBgh/mwpa5tKM8DBCGvID4S1cDlxDXaBbZQGIsuBwxPSUtbHhLyIsqGpZVzz05t4rKBAJkwcK0OGDnaaYclby+0MF+wwwzVl2oR4erRR0/sOmF8nsn/DGS5CegfOcJnTpjkp7bXD9a0nRf640DhcMZFfnityzOjgA9Ij9ITDVV9fLzfddJPce++9gdI1jjnmGLn88sulrKzMxvEzmz9/vtx88832fVeZMGGC3HfffTJlypRAIblOLjlc+K36zgQCNIT6+gZZsnC5+dz9nseMGylDhw+OL2lTOwQd+EdpaqvlqHOUSgunj9JAlNMRpSGermwNqew0aJ5RGkhXdpQWLgfa8iWrpLqqxn6Ge7gmT3UOV2flEALocBHSO9DhytDh2l4nsrvJZGLeD+8vUuL2RyA9RE84XPh5bNy4Ua644gp54YUXbLyrlJSUJA2YsHMZZgq6CtLecsst9h4yLivsO+SSwxU1s6XHQLpNM0DUwD9KQxx5qKblqNOhAYTrA2AHVENaDV0pG3qUpvkhRGlAj+euloM4dF/TOD6LsgPa7uVLV0u1t2kGHK7OyiZEocNFSO9AhytDh4v0Lj3hcCk7duyQu+++W55++mlb5r782cC5mjp1qnziE5+Qk046iQOnPkYubZqB3/nu6hpZs2qD3RJdf/f6m0RcNd9BANg90N+9z9lh6VxHO1y28n/nLi3ivpZcNkiVZ//yMpk4ZbwUFRWZzzo6IppX2LmBrhrCrh1Vsma1azvoWHbX6oM8O/t+QOp2J/JEXMtOztPpFQMrZMLEMVJUXBTohDjocBHSO9DhMmc1c4JyZy6Sc/Skw4WfCbZ1R2eP130JBlxYiogQHqSR3CdXHC785uEorFq+VnYax0O7Svw+ERAPa0D1PdEAXqPsAOoBVFe7dNrgIQPtzon6mTpbAHF1gsIa4giYwVu+eJXU1dXHbfQ1XB+g5aumcZDOrjMNqB6lAb8+sYKYcTbHmcH1gLhGCKDDRUjvQIfLnIvMycudvUjO0ZMOFyHdRXl5efzevmwh1bGEpWwrlqwxn1XZuDooZtgv7cG9W27gb98aZ8A5Ck6D6BwE6Mla2M7Fw2mB3iPmdPs2riUuSMBZchrQPCZOHisDKsolPwa7ILGxxcOL8/Nh46dXZ8toph6rVq6T7Vt3xPMy/1mi6tO1NqbXgGuP0fD/NG1E3V17kN7lAZAn7OFoVg4cYN+7cgjpGw4XnC04XYTkErnscLW0uQAyuXWKDlcOg3uiMEjkn5DkEtnY8WLWFstmw7S2tNqNGqqq3M54/cv7ybARQ5xzYj53Dos5/sxnbuDvZpKUuIZBfzDwVw1p486AiWOLeadBMP+La+qcJDTgyoFu8jP1QS+Qb9Jv37bDbiyBMrCsrn//MpfeJoetq6+rU6CZgIjzY/Jsu3ftrDYRx5Chg2RAZbnbodDYxR9gbNMGZfvtNmUgT6vZulsx2HGxa200ivegZKN5s1jOFlkm2r12zQZbb3w2fuJoGWzqrHaEgEGDBuX8/cANDQ2mP3IXgAjJFXL5YseDb4n8/CX3/smL3eveQIcrh8EDV3fu3BkfiBCS7WAAjIdhZ1vHi25wy5YtQSwBHLGV2KihutbWvXJQhZ01ApGOVUjDsRl+EG9iJinhDPibZih6XO9pOTU1dbLC1LmpsSmpHE0bLjtcjm8HsPnNATMm2ueKQd/T+ijQfDsALao+YS1VOb725muL4m2edMB4GTS40uqEKEOGDMn5B2PjvL99+/YgRkhuMHjwYPs81lzk1rki18xy79tvcq97Q/LZj+QUGGiEBzCEZDMYDGfjgAf1wgYTPnbgj3+mvvgcg/tWM9gBaAM01XXgjzhQzbcD6kz4tuqIhDWQTkOIKqesrMQ+eFnjQO3CmuaZyg73Q42ZMFIKCwus7tdHbf36qB7V7rAdNLwPt1FtVIsqJ6yBtlbdGCSRlhAFv0mEXAeDVv6+SS6BfjpXna3uhKP1HAadLrdLJ7kEOt1sHfSEZ91wfOHeJxxjOsBvbGiyA3sFDkJ44K+2Yc13JlJpADri4fRAbTUtXpOcDqOB0WNH2ICNMwYOrrQOGJYFYpndIKNh9mfg4AoTH2gf1uz0QDOfQ8crdvsbMKC/zbOzNqJshKh2Q1NUg42vq6ZBy4gqJ6zV1tTZ2UjEocfM303TEgKybaOeTMCsMyG5wv6+WYaS0ZLCe18XeWq1GUSZc+ZX3iUyfUjwAekxuLyA5BJYTpitg4VUS3S3btkuq1ess4N3OIzjcH+QcUYQh63O5iCuwXcG1E6dgc40oOk1PwQ/T9hB851XaAh+fVTf2/po6Kw+iKcqJ0oLl6OaBmgawm2E5tenublFVi5fI7uDByKXlBbb53NhCaRfNtl/wW8Iywn7CtjkB/dx4fdPSDaDPnjgwIE5PcOVFUsK56wXucc4Xb97U2QTN83pFfAj5tUDkgtgyV423zSLQVm4fhjQYJe/4pJiO3DHgP/t9Ztlx/ZddqCvzo3a+s6Aar4zEdbU6QDQVcOr5ofga77Toajm1wdA35P6+Gmhazm+ra9p2j0tR+setkOApkHtAOxUU7vGhkZ5e90mqQnusQP9+/cz/WIsqT5k/6avnSMx684lWiQXwDnVv2i2P5PRDNelj4jcNc98oea4n3WRyMwJwQekR8EN99itEFfoCclGMPjFLkXZvgQWxxJmjNEtImCQD6p27ZY1K9eZY6zVxvEZBvZl/UrtTnroRbFjnt2u3Bvkh50OY2U0OFYw85wt7Opn/vkOhtbB11AQdvrDrnx28z7VUI7vYJj6QIuuT7hs10akV2zZpk5uO3lHoj7IT8uJqE+8jckOHJZiWs2md1g7Y59cNhwr95tREvVJlI2HMdfsrrWOr5ZTXFosU6dNlMJgdosQDPZwhb2vDfqwhBYz8jg2CMlG0C9jZ9BcvzjQXTNcdLj6APgT6hIDQrIRPOwYz97yB+DZCh63gGMJFzBwbGHgDsdg88atsnHDZuuUWcchaAtsEFJpAK9RdkCdOtXVrjMNqN5VDaju26kOwvUBvi2CxkE6O18D6gT5mtpGaaAr9QFYSjhuwmgpH9A/rpH9GzhZWMbcV+91rq+vl927d8ePG0KyBfT1eARMNq9q6SrcpZDEweAC98VgBoGQbAM3qyPkyiAYSx/xcGbUV5foYROG4SOHyMQpY82x5pYXgqiBf1hDiLIDqZwJgBNWZ1o4zygNhNOH7dS2q85NOD+Qys63VVKlB77W1fpg2eekKePtc9JUI/s3+B30ZWcLYKlkX9oMhPQdcA7tC84WOG6MyLdmupAJnOHqQ+BPiYci4kn0uApPSG+CgbMOCHJxEIxZY1w9xrGEgT+OL7QJS9lwD1ddXb1bzoZ/QftggyVxSQ81ji+xc4NA839PQ1rYOM09lDjZzuXpNM0zvuwO8SQNeYbL7np98NZYhvI00XzbSk9LLsekNnV3+SU0tEfLhoL/+WWrA+aVbQ2dnVtmGdVGEzX1wd+iqLDAzmj1NwFOMTRnhzyT7ysj+w9YwoQBX/hRD32Vuro6e97XCxSE9Ba4SIkVLdxJsyN0uPoY+HMiYKAI54uQ3gBXlXF1OdcHvHC2ampq7GDGbwsGNs6R8dpmelKrwTlR3WitduDvaYZWez+Tc0oV62wZwvc4wcnw7z9xzkS7xJBWizFJrXNj6+g0oHX0y9ZBmV92lKZ9SViDbXJ9XHr3/agY3W5XDpwlX0O7k8uBHfKNaqO1s5rJx+TdZr4flKHptY7abr980vfB0mUE/zfa18FvXvsqXCgipDeAkwVna3869vYEOlx9GNxUC6cL96RgAOIGO6QrtLS2SHNrsxnwxaSoYP+4SpoJGOwi4MoyOl1cWe4LA10dvCP4xxKOLbTXb6Pe2+UP/LV7DWsIfnrk2RUNcehRml820PpoALADvt2eltNVDfFwOQC62kLLtGzE/XLCfwfSt8HfGQM8XOTBjPr+vnsfHC7c24XjAMcHAiH7Ahx7CHrs9eXlu91BRg4XnsP15GqRQnNe43O4shP8eXVgwo636yzftFy+9JsvySUnXyIfOe4jgUpSgU5XB7k6IO4LaPeobdLjSAf1PrDd1xrYF+UAX4+yA5mW01UN7Gn6rdUb5Zf/uVkOGXuMnHPkJ61G+j466EMgCdBH4fjgeT81OM9ff//18tlTPitnHnZmoJKuwmNvz8jI4SKkrzJ/7Xw5+Tsny3c++h25/PTLA5UQkq2s37FSLrnrZPnQMZ+Tz7/nG4FKCCHRvL76dTnr+2fJ9y/8vlx80sWBSsi+gW4pIRHgOgT+ha+oE0KyFL10yEOWEEJIlkGHi5AI4GwB+0BXQkjWo8csPS5CCCHZBkeThESggzfOcBGSW/CIJYQQ0l2srxZ5arULmUCHi5AI9NbGfB4ihOQYdLkIIYR0Dw8tEjnrPhcygaNJQqIw/hacLs5wEZJb8IglhBDSXbSa8WBDiwuZQIeLkAi4pJCQXCN+1Nr/E0IIIdlCRg7X9jqR1btE1piQqedHSDahSwrpcBGSG+gDTnjIEkIIyTYycrhuf9GtaTz3fpE3NwciIX0A7lJISK5Cj4sQQkh2kdFocnOtyOJtIku2i9Q1ByIhfQA+h4uQXCSY5iKEEEKyCF6+JyQCznARkmuYY9b8x4skhBBCsg2OJgmJAv4WB2+EEEIIISRD8tp1d4C94NJHRO6aJ1JcIDLrIpGZE4IPCMlxHnzxQfnEzz4hU0dOlVEDRwUqISRbqW+qlQXrXpaRA8fJmEGTApUQQqKprq+WeSvnyWWnXSa3furWQCUkGWwOiNunwJlT3OveQIeLkAgenPug/PifP5bKfpUybeS0QCWEZCvV9Tvl3wv+ItNHHi4HjTkqUAkhJBp764D578AxB8rnT/18oBKyb6DDRQghJOdZs22pfO7uU+WCd18hnz7pq4FKCCGE9D68h4sQQkjuE1w65F2XhBBCso2MHK4LDxG5430iPz1LZOrgQCSEEEJ6gb1erkEIIYTsQzJyuE4cL3LpUSKfO1JkVHkgEkIIIT2Mc7bwf85xEUIIyS64pJAQQkgfwLlcfJQDIYSQbIMOFyGEEEIIIYTsIzLapTDMnHUiT68JIhFg2eFHDxIpKQiECP7ylsiyHUEkgqNGiZya5hErG6pF/rxQpKE1ECL44Iz095y9vEFk9qogEsHwfiIfMe3oXxQIEfxtsciiYN/+KA4fkX4//+11In8y7ahqDIQIzp0mcuDQIBLBaxtFHlsRRCIYXOr+HhUlgRDBP5eKzN8SRCI4ZJjI2VODSARVDa4d2+sDIYIzJoscMTKIRDB/s6nHsiASQUWxa8fgskCIYNZykdc3BZEIZgwRef/0IBJBTZP7XW2uDYQI3jNR5OjRQSSCpdtF/rooiETQv9D9rob3D4QInlgpMu/tIBLBAYNEPnRgEImgocX9Pd7eHQgRnDRe5J1jg0gEK3e6PFJRkGf+HgeLjKsIhAieWi0yd30QiWBSpcsjFS1trg5rqwIhguPHuZAKpP3TApNXmh4Qv6tJA4NIBJ31efgOkEdBmktbqMPKXUEkguPGpN8BNlv6vEz77s01rh01zYEQQbo+b/XWJfK5X54qo0dfI9MnfzlQk+mOPq87+u6zDzB95/AgEkE29Hnd0Xe/tVXk70uCSATZ0udl2neXxFw7Rg8IhAhyoc/rSt/93FoXUpErfV42jFcz7fNAZ+O8bBmv9kSf1xPj1euPD97sBd3qcP3gOZEbnggiERxrDiJsH1+Z5mT3gQfcHz8VVx0ncuuZQSQCdGhn3ue+uFQ8dL4pJ82J5ta5ItfMCiIRHGZ+fGjHiDQnifMfFPmj6VRS8YWjRO58XxCJAA9ZQzvWpOmU7v+wKSdNB33nPJHLHgkiEUwzJ1y0Y4Lp6FNx8cMi974eRCL41OEi93wgiESAB8ahHUvSHMx3mO8B9wKm4h5T/qdNPVIx3tQf7Zhu2pMKfYRBKj5mvscHzPeZik2mY0Q73kgzgPmJ+V1ebX6fqXjY/K7PM7/vVGDQgXagc0vF1eZ3eZv5faYCA6iHze87FbvMcYF2vJjmxP/9U9N3KhjInWXySEVXHhNxveknbjH9RSrOMJ078kgFBlFox9NmEJOKb80UucmEVGAAhDwaTV6p+JepQ7oTTWd93knmO0A70p20UYfHzHeaiuvM3+IH5m+Simzp8zLtu+EcoB0YhKQiXZ+nDtfrddfItoJoh6s7+rzu6Lt/Y/rMi03fmYps6PO6o+9+wJwDLzDnwlRkS5+Xad8NBx7tgKOQilzo87rSd9/0lMi3TUhFrvR52TBezbTPA52N87JlvNoTfV5PjFfbbwre7AVcUkgIISTn6bYrh4QQQkg3060zXFg+8ObmIBIBlnPg6kdRLBAieHaNyIY0U/+YIn5HmiUM2+rcFaDmtkCIAFPuY9JM/cO7fS3NTAaueGDZVWlhIETwwrr0U/+TB6ZfwlDd6NpRm2aq+Z1jnNefiuU70i/FKC9yV7L6pZlqxlXBVWmuWkw05eNKUCpqm9xVtd3mNRWYdp8yKIhEsGqnqceGIBJBP/N3wO9qQHEgRIAlUytMPqnAMoh3pVlGV2/+Dlh+gKulqThihLuCnor11emXYuCKIH5XA81xkopXN7rlLakYXS5ygskjFU2t7neVbsr80OHplzBsNMdnuqUY+XnudzWsXyBEgJnCdEsYcDUu3VXWVnN8ow5b0izxPHiYC6lAWvw229L0gPh7jEyzA2tnfR6+A+QRS3NpC3XADGoqsPQLVylTkS19XqZ9907zm8TfFFfyU5Guz1u1ZbF8/lenySEHfFmOmXFNoCbTHX1ed/Tdx5r0E9MsVc2GPq87+m5c8Z6TZmYpW/q8TPvuQnN84+8xJM1yp1zo87rSdy/Y4kIqcqXPy4bxaqZ9HuhsnJct49We6PN6YryabraxM7rV4SKEEEJ6A+dwnSqfPPFa+cTxVwcqIYQQ0vtwSSEhhBBCCCGE7CPocBFCCOkDtAePPeZzuAghhGQXdLgIIYTkPHZtPBfIE0IIyULocBFCCOkzcH6LEEJIdiHy/3UMh9S+I0TxAAAAAElFTkSuQmCC;" vertex="1" parent="1">
          <mxGeometry x="32" y="70" width="762.03" height="140" as="geometry" />
        </mxCell>
        <mxCell id="j9wAFBM-4F8-QUCNC5Rh-3" value="" style="rounded=1;whiteSpace=wrap;html=1;" vertex="1" parent="1">
          <mxGeometry x="240" y="240" width="370" height="60" as="geometry" />
        </mxCell>
        <mxCell id="j9wAFBM-4F8-QUCNC5Rh-4" value="&lt;font style=&quot;font-size: 14px;&quot;&gt;GateWayApp&lt;/font&gt;" style="text;html=1;strokeColor=none;fillColor=none;align=center;verticalAlign=middle;whiteSpace=wrap;rounded=0;" vertex="1" parent="1">
          <mxGeometry x="369" y="257.5" width="90" height="25" as="geometry" />
        </mxCell>
        <mxCell id="j9wAFBM-4F8-QUCNC5Rh-5" value="" style="rounded=1;whiteSpace=wrap;html=1;" vertex="1" parent="1">
          <mxGeometry x="40" y="360" width="200" height="200" as="geometry" />
        </mxCell>
        <mxCell id="j9wAFBM-4F8-QUCNC5Rh-6" value="" style="rounded=1;whiteSpace=wrap;html=1;" vertex="1" parent="1">
          <mxGeometry x="314" y="360" width="200" height="200" as="geometry" />
        </mxCell>
        <mxCell id="j9wAFBM-4F8-QUCNC5Rh-7" value="" style="rounded=1;whiteSpace=wrap;html=1;" vertex="1" parent="1">
          <mxGeometry x="580" y="360" width="200" height="200" as="geometry" />
        </mxCell>
        <mxCell id="j9wAFBM-4F8-QUCNC5Rh-8" value="" style="shape=image;verticalLabelPosition=bottom;labelBackgroundColor=default;verticalAlign=top;aspect=fixed;imageAspect=0;image=data:image/png,iVBORw0KGgoAAAANSUhEUgAAAJkAAACuCAYAAAAlI6+vAAAAAXNSR0IArs4c6QAAAARnQU1BAACxjwv8YQUAAAAJcEhZcwAADsMAAA7DAcdvqGQAACNbSURBVHhe7Z0JdBzVlfdv793aV0u2JMurvNuSjTds8AIkYfFAAmccAgkBhwzJ5BCSTGb5yDZnzizJIXNmCckEZjJnALMlJA5gwBtLbOMdG6+yLMmyJNuyLNnapZa6pe/+X1dJpVZVqbu1uLu6fj5ldb/a6/3rvnvve1Vtqa+v7/N4PORwOKivr49MTEYDi8VCfr+f2tvbyep2u8lut5sCMxlVoCer1Uoul4ssXV1d/N0UmMnYAItmNQVmMpYIiyZ9NpHw+ry0r+Yj6ZvJaGCKLIgefw99WL2NrrZdlUpMRoopsiBavS10obmK3it/TyoxGSmmyIKoai4jGzurO6s/oLrWOqnUZCSYIlPQ0N5AH1W/T/4+H7V2N9H7VbukOSYjwRSZRLe/m/Zf/IiqW8rIypast9dPe2v3U21LrbSESaSYImMgsN3VO2lX1dtSCZHDZmXBVdHuC7tFMGASOXEvsmvt1+j10/9Hb5W9Rl5/p1RKZLdY2Zr10dsV71JNS41UahIJcS0y+GCvnvlf2lf7PnX3eqXSAEhRWyw2utpxlV449kKg0CQi4lZk1zsb6dXT/0Of1H3MgtLu9XCTnT6s3U2vnHjFbDYjJC5FVtd6kX5z7Bd0pO4AOW0OqXQwSGNY/b3CpKVYE+iVM7+ld8+9R509A02qSWjEnchq2Jn/zfFn6fjVTzmKdFCvRt+tw2aRPgXo7emhzac2087KXaZFC5O4Ehks2IsnnqNz186R3RqwYKGOD8CF6vC20/8c/1/66LzZtxkOcSOylq5m+l3pS3S2sZQtWGSnbWFB+tii/cP+f6ajNUfJ1+uT5pjoERcia+1qpd+deYUOXt7fb8Fkelk44Qx3svKyydZE+um+f6ED1fvJ5zeFNhyGFxn8p/fKt9CH1bvIYXVKpQOwax82EFpHTwdtPvkSnb56ioUayVbiB8OLbGfldnq36k22YIMd+dGgqrmGfnn4v7gpbpFKTNQwrMj62LqcqP+UtlX+QTj3GAasRXeEhsjOl6+yuYp+9MGPTaHpYFiRIZu/pfQ1qu9sFH7XcPiDFkIneSggWVt6vYye2fNz0UVlMhTDiuwPZa/R6cazZCEbR4HDq8wXtIg9RJEBCO3o1WP0+pnfUZu3TSo1kTGkyHZV7KQ/1exggUVOT2+YbWivn/e7nQ5dPGAGAkEYSmRIRZxvPE+vl/6GPzsH+WFen1/6pI0ylRFCCzsIC/9r83XQyydfoyutV6RSE2AokcH5fvPcG9Ta3S2VDADRaHUhyfgUBihUn0yJg5vmC03n6VcccTZ3NkulJoYRGbLvhy/tpxMNnwRS8yoEO/fBQGOyEMPxyZS4bW46eOkA/f7MG2Yfp4RhRNbe3U7bzm+j9h6vaLoiZRhjFxJOi4PertxGR2tZ8CbGEBkc7R0Vb1N16zmpRB2MGxuNJ+axCc2JzSGm7s4O2nJ2C11pucLlPCOOMYTIKq9X0lvlb/Gnod1GStBaDueXYZlgUfQLSJqEg6c1KTjbWCaeEYj3jvSYFxmayZdPbCZvb2AwoajrIJEoQc5Mb74y+SBEhQKxUcUUIl0+L22t2Er17fEdbca8yE7Wf0ql10v5kz1QMAyhaCTSbqZgrOwbNrQ10IufvCSVxCcxLbKWzhb6Q9nbHMWFNyQ6DGM0cnhnWyq20ImLJ6SC+CNmRQZn/2jdUZGXCh6EKFo4nSaxG2P3x5FsVzb9+uiv47YTPWZF1uXrokN1h6mlp1UqGcz4ymgYWO81LdW0u2o3+XuH73kwGjErsrq2OpH0dFlD88WCCaWbaTTx8f4+uPABXe+4LpXEDzEpMjSV75a9Q609baJ/UmuUxXDpCj0iX1MdNOk1TdXcxH8Sd9YsJkWGVzp9WPMRJdhdUkn4QER6Igx7FEYINHtbaPeFPXE3HCgmRfZ+1U5q87UHEqMS/ghEod+XaREP+I4mDouDjtefpJP1p6SS+CDmRIa0xXtVu8hjG5zdV9MLivSiTD/P0xIa5BXJSIzh8Pm76d3T70jf4oOYEhkEc/jyYWoWqYCAAHQ0JBhOaIElxg9Ln4WOXj1Kpy+flkqMT0yJDO+hOHrlGDc7UkEQamIaXwmFRo/PR78/9fu4eWYzpkQGh7+ssVxEl2ot2UiiyfHE5XDS8SsnqLq5WioxNjEjMgir4no5NXTUcUM5WGGytuBe6TeNQ+nhlcJdZzTo6eumwxcPSd+MTcyIDKNMy5sqqau3W+TGoAs1a6aml+HizrGUGASsNnn9XjrIIrvebvzkbMyIDP7Y6frjQ/opR4PR7MsUIoJ1lKbAmO6hk6XXQnVNddxkXuACYxMzIqtprqVK9mHsVv1Dhl+Gig5mNP01pYiCJyEi7EqeNIA1buxqoNMNpw0fAMSMyM7Un6EeGtwdA93ITaasIa161alvgVpfJrYpLJN/8DRIRMFTGKB3qfTyWdHZb2RiRmQ7qraRx+YKOPeK2lQzUFp9mWoWblhgmcYIh81OJ6+epBavsYcAxYTI8AzjueZK6dtQ1AIANfQkhnk3IgVy3Xudjl08Kn0zJjEhstNXTpO/b6A50zBUg6za6Pdljg0ui4s+rvmYfD7j+mUxIbJjdccozZ0qfQsNNb2gKKImcwyxWW10uOYIXe80bioj6kUmkrAt5Xyg2oeq1M1w1kxPYoEO8zF0wjTo4eiyrLFM+mY8ol5k8Mcqms9L3wZQOv/hErI148XGw/DBmu2p3MsCN+ZgxqgXGX6lLRSLNBrO/43CaXeId8/iGVIjEvUiu9R0STRjwaCoV0Myw1kfvQbxRvRlYnct3laqbjJmh3lUiwyVXdd1mewWm1QSBFeO3GyiooKtGZx//NJbNIDj05pAt89L5Q3l/F0qMBBRLbKe3h663HFF/JKuGqFUB0QYbsWpWc5QkEWjNg2HzWaji60XxW9vGo2oFllXTxc1dTWziZIK1BimArUMmV7iNZR3zIJwhaSHz++nKy31bNFMkY0rreyntHSpP7wro6xbVHRwX6YW4WpCKSZ5Gk1gcTt62qnTZ7xfoYtqkXl7vdTd262biccc2S8Ll5C6kXiR0RaUFk2dTWIyGtEtMnaG5Xd76QpCMQuLBVuzUJu/cQWHpJyYjp5O4SIYjagVGZx1PAQrNx96OtGZ1Y9Wrm1cojmxo6ApCDzFhAAHI2aNRvSKjP91+jr4Q1//mH6tZlO9dDBaIg1l3bDABoOnEMAgxm5fDzVzoIOuNCMR1ZYMCcrOng5RAcOhTMwqjZPy84j6JWXBDDeNAKQvkPU3Wq4sqn0yWLNQe/OC6yUEXfYzbKWOY50jNxhpIBOtRLXIMDphNNDTkNassXjhynBgzJy3x2tasvECIxKudzWRTzFYEZdeL8rU6suMhBsxShbiwlNZpsjGEeEAq1xwvUqQmxosEtxkwvlX68uMJjfbaE0liGqRqaGbygihflCJaiI1mvWIJmJOZOGgZc1MxpeoFplD432wePRRi1AMkloPgLEyU9FF1IrMarVSkjOZ7DovHoZzruagq/k1oYgvuMnsfyrcZERErciQ5cewZC0gLrwJMfhtiMGSgG7kRYYT2o2WE5LOTrwHN4wcXywQvSLjC+6yO8mpYclGGgDc0L5MDWwWGyU6EsbkpTI3kqg+G7fVJcQWbs4qlKW1RHrjJMb75oOyWxz9fbVGIXp9Mr6b090Z5LZ7+Jt61euNMwulLzPa0hYuh4uS3InixjISUW3JElwJ5Ha4pW9DgURCFYpavWlZyP5tYp1xqm/sEz5oqjvVbC7HEw9bMY9NW2RAS2LQiVb2XNYQDGGwSAd9w5fBs8cMHKvNYieXLfIfwIhWolpkqa5USgnzHRhKQtFHkMZuGOiiTXYmUaIzUSoxDlEtMjSVEzzZw/oomk2mohiLhOrqjGZiFsemObEp7fUFJpDkSmahJYvPRiKqRYZEbFH6DOmbOjq+v9AYV2XgiwaYjwoPRqwbpj8mC2fQxBZKc1KoGRFlmidN+KFGI+o9zILUAvFCEj30hKZERUshr6uk18/WR2WShaOcQgU3VGHaZPI4EE0bi6gXWV5yHleAvsj0dAIRcfVL38JoMlmRFmk1uUnrb9pQrjaNgD5rL2V7Jgx7Q8UiUS+yzMRMmpdeJCpdD7Umr5+gWRCacnG9R+bCsUYjwWF3UEFmvvTNWES9yEBJ9hLq8On/RiS3VmGjFJquSMeBFHb6J3NzaURiQmTLCpdR7wheEKeUj5aWbuQDwD7qoZlpRYZMX4CYEFleSh5NSSmQvoVPsHxusNEaQmd3F60tWmNIfwzEhMjQzfJnM+4jb6/+G2/035mhPk+vyRTftDc5aiS6E2hW1izpm/GICZGB4knFlGBzcwAQmSceilYGBRf80TeKv7mkBX7ypoTPLd2TLpUYj5gRWU7iBJqTMUs8m6gFJKLlwAcXh5rKGGvw1qJVBavIbtceARzrxIzIEpwJtDRvGdkt+pWhLrEAw71jVuTUFGpExn7MwKZ5ykjIoCWFSwJlBiVmRIaM+LzMOTQhITviJlOpMWhJzZppGMLwkUSkOTF4NdbiiSViIICRiRmRgYK0ApqXPVf6pg5Eotlkikl9ngzmh5UzC2x06BQCbqebFhUs0h0zZwRiSmRJriS6tWC1eJJJixDrdwiyrvpbSDWxyGXKKUJgjfNT8ml+7jzDpi5kYkpkYGHOQlqQPlv6po5e9l9ppPA5pABghIJSA6MuCjMKKS81TyoxLjEnMo/TQ/fM3ECd/g6pRJ1Qm0w1ocnZf51AdsRgjNztRevJhUfgDE7MiQwsLVhKK3JuIp/OO+91+zI15mnoctTBj/bPnziPivOKpRJjE5Miw93/xXkPUoJ4kil8QolNfWP8frKNxRvjwoqBmBQZKMoqols4CMDrPrUYyY+kjlWyHy9aXjF5BZXkx4cVAzErMoT9awvXUrYnK6K8WbBfJjOWTSb8ROTEvrT0i4aPKJXErMjA7OzZtCJvhfQtPIK1NB7dTOgSWzPjFpqaMVUqiQ9iWmToavr8rHspSyNjDiHpJVa1ErNYxaq9WkTA2uYkT6DbZt5Gbruxk6/BxLTIQGF6IT266DFq0xg5q6UVCElPR/L4/tECzymsyl9O83LnifRFPBHzIkOFrZ++nj6Xf7t4PbkamtZMCC0wD4so6z6srqVhgBVzuT30wOKNZLcZd7SFFjEvMplHFj9C01MKhwwF0gsw9WTU6xu9S4Ofsvm7Nd+n7JRsqSS+MIzIcpJy6M/nbeToLTmiaDOYZBodvwm/X/mFBZ+npYXLpJL4wzAiQ0pgBfs86wpupd6gdKte9h+WLrjJxGTvHbnfhMw+8nkPljwolcQnhhEZwNPXX5r/EBUkF5Bf+gnDSLDwqunWkb8uINuTTo8seYiykjKlkvjEUCIDKZ4Uevrmv6E0bjbl38oEug8HK2bJi6U6EgetHwl3zd9AJVOWxF00GYzhRAaQ7Pz+yu9Tuju1PxDQCwCUjSuaTrfTQ0m+yPsV0XV024z1dO+8P4ub/kk9DCkysCh3EX2Fm063zdVvxUJ5/Sf+x+AOB9nEkO9wgcAW55bQN2/5BqUkpEil8Y1hRQaBrJvK1mTm3exkhRdtJnXbKD0hTQwsDAc4+lOSJtFf3f5d0RthEsCwIgMIBL4w6366o3D9oF+bU0PpsmW7U9iOWdn5D++1ARNTcukba5+k3JSJUokJMLTIQGpCKm0q3kTrJq8RT6CH0peZ4HeS3WKlLHvoIsN7LDYt30QlecWGe7HwSImLq5HqSaUnFj9Ot+av0h1/BomhgUz2u4QlS7KENiiyrbuNvrfuu7R6+ipy2p1SqYlM3NxyeFXmN5Y8QcvzV1K3369q0VBk9VsoMyFdJHfTXEl8gfT9Mliwn234Ka2csiKiQCEeiCu7npWYRd9a8k1anrcskOlXEVoiefiiBC5LtiOV0m2JqsvByc9NyaFvrf5LWjr5JqnURI24cx5yk3PpO0ufpLumfZb6envJp3jvGT6nWtxkly5LmjOFJroy+Ntga4Y0RX7iBHri5ifo5qkrTQs2DHEnMgAf7ZFFX6GH5n9J/GiW3KFus1rJ43eQRXrtNZz/4rQi8ih+wAECm5c7l/7xvp/STQVLTB8sBOJSZCCR/a0vzL2fHl/4GDltbvKz0GCxcthy4cdc0RXkcnpoElus9dkLqcfnFet9tugO+tk9/yIeyo2ncfojwdLZ2TnU4YgzPiz/kDaXvkJNrY201jGf8mwZQmQJHnb82bo5XR46115Nnpx8unv2XWYmP0xMkUmUNZTRruNbKaWxmxLtHrZi7JvZHeRwusTfgvwZlF+40LReERC3zWUwMzNn0mem3Cbe5gggLBkILmfiLFNgEWKKTALNY3paFiUnpfYPzbHZ7EJsSclp5HabfZGRYopMQWJiOgsqg9xBv2+UlWXM9+uPF6bIFNjtTrZYA7+ca2MrBmvmHsHPIZqYIhsEIsmUlAwWlk0IDX+RO3M4B/wzk/AxRaZApC0Sk1lsNnJ7EoUV80jfTSLHFFkQCQlpg0SFLiO5+TSJDFNkQTgcHhZV4LLgaW+n02WKbISYIgsCzr/LnSD5ZOblGQ3MqxiE8MsSAiJDjkyZlDWJDFNkQQQsmJPcrkDm32I6/SPGFFkQSFu4hMBYbNx0Wk3Hf8SYItMAukIKw2TkmCJTITkpMJTH4XCSkyeTkWGKTAN0KZmMDqbIVEhOmUg5eTPJ40k2Hf9RwBy0qAHG/fdJD5mYzv/IMEVmMuaYzaXJmGNasijk+vXr5PV6ObodGnz4fD7qVfzuE/J6breb/UcPN+tW8V2Lrq4uam9vl77p43Q6xTZH47fRTZFFGRDR8WPHqMvbpe4H9vWJ1ynIYBELxMVTQkIi5RcUUErqwBByGTwFf/nyJbpQVSWV6GPl9ZHCmZCTQxMnTdIV73CYIotCYMVaW1vpav0VutbY2P+ahIzMLMrJzRWfUdbR0UHNzc3U0d5GPd0DP8uYnZNL06ZNG2IJ/X6/sGTNzU1UzWKTt5s1IYeyswOvf8c26+vq2Op19s/H9oqKiiIOfkyRRTGtrS10rqyMRdQuxrhNnT6dJk4c+u4zCPLypYt07do18vUEfjAjLT2DpvHy6OxX48ihg8R1Lz4vLC6mlJSBIeawpheqztMVFpvcNC8sLuFlInve1HT8oxiMawvFeiQnJ9OMmUVUUDCZ7JL1amq6TrU11dStsHChAj9scmEhJfF2ZSDgSDFFFsWIZwwkXwha0xvfBqcfvtOECRMCwuSmrrGhgVpamqUlwgOW0+MZsILtbC0jJWKRwYwqIx2037hrEMH0SCZbycD8TtX5esCXkNeFv4L9hgL2GXyM2DeOERO2GyrYhnx+OIbgdbFtTFoo18ffUPfd/95aFs5wHfYQWjb7V7Ivhn1ca+QmNMTrFYz85kmQkZUlfQqfkH0yuYLa2trYFDfRxdqLwhdYfctqMb+0tJROnTzF81vZH0inFStW0vTp08SJN3FIXnbuHJ08cZJaW1ooPTOTFpeUUNGsIhEqa4EKuXjxIp05c4Zqamqps6NdRFDwS2bNniWc2+D1UZnwYYSfUneFysvL+ViW0yS+y8vYvzl29Bhf+AZe0sLbmE3LeZ6er4HtXbx4ic6eLaXzlef5+JvJxaF9ITcn06ZNZ8uRTS6XSzjT7e0dNGvWLGnNAPB7ampq2Lc6R9XVF4RAE5OSaSI78DOLZtLUqVM1rwHWLedjxrZt3IQVzZpNmXzthqOMj7X+yhXxOSExkeYvWDhkH3o+GcC80tOnRKCQnJxC8xYsiDidEbLIUOFvvPEGHT50RBwAhJafN4nuf+B+euutrVRRWcFiauK7p5dPyCEu3tf/4nEhshdfeJEqKipFJITKdTjslMsX+ctf+TKtXbtGLBNMC4vxt6//lg4cOCiWTUlOpAa+K0+fLuXlLSIaWr9+LW3YsKHfd4CF2Lp1Kx08cEiIvbm5ReScvve971BV1QXavmMHR2xXxQ2DCwZx3fGZO+jhhx8SOaFgcM47d+6iP/7xj5SZkUnTZ0wXFb77T3vEMWfx3Z2ekSYGOF67dp0WLlpIX//649LaRFevXhXnsGfPXhbkVEpPSxXncJSFjtwWBHPPhnvorrvuFEINJlKR1dfXU1npGfEZx7moZDElstiUKEVWNHuOOB4ZGBNEmPDrMvkc8/ILhqwfDrYf/OAHP5E+64KDTU5OorOlZ+ncuXJxIA0cXh9i0a1Zs4oefPBBuv3227hSr1EjX0iI8OOP93HF7qQ5c2bTn2/cSGvX3ErtbAnr+C7DCaISikuKheOqBNv+yY9/Qrt37xHbfGzTo7Rq1SpatXo1FXNF7tu3j7ffTMeOfSqip9lskXB88EV6uYko5WM8cuSIsEIo37dvP9Wy5d1w9910221reTkrW5VqsTysb8niEiFkJWhqtm/fTs/9+nmakD2BfvTjH9JNN91ES5cupeLiRXzD/UE0Qw0NjVTHFhPCffSxRykjI0OsD0v6b//2H7Rj+w7auPEBnvcYrbx5pTiPpUtvEsLDTbd//37Km5jDAp4p1lMCq9fQcFWkJ3AeqHCtaFEJlkW0CXBcOTk5Q0SM+XIz2sx11cB10XC1PjCxL9fe3ib8wYSkJL6ZssU2IyVkkaFC0jksXrV6lbgwENGEnAn09A+eZouyXlgWnMziJYvp4MFD4iLj7vjud5+ijV/cSJMnTxYRyxq2XKdOnRIC83q7RP6loKBAbB+gcn/5y1/RRx/9iS3DAnrs0UfFxUXUhAuVy03lwgXz6b33tglrVFVVRbdwk53EFwPbQPJw3fp1ZOULhKYRFxn7/Pm/PkMLFi7gKGwmrVu3jhx2B3366adCiAlsxZYuWyr2LwNL+vzz/03VF6rpyW8/STN5PVx07BPniVQB1kfT/Ytn/5Me/vLD/QLDPl966SV6849vsbBW0KZNm4TVxPMCOAesv4hvFlhJbO8AX69169YOudlgmZEnC1dkOKdLF2ulb8Q30ERdkWWyiJL4+BISk8Qxyv4i5sMo1HJzj9HC8rMP4RK2POFUehICTUsORzKTJg3O26SzP4ZKRVMjlnXjEbOBA0PZw19+SLT1XV1eusp3DS6KDCzM3r17hWimTplKqWlp0pwBZrF5v/vuO0UlXLlST0cOH5HmDDB37hxR2aicW2+9RSod4Da2kHl5eWI+mq9g0MzC78SN4nYPbcpmzy4SokNmHs2yElifbe9tF5Z//vz5g5oiGfh0t99xu6hIXKu9ez+W5gyA6xZJpQYznBVCVDp9+nQxzZk7l25auoxm819ce3n/lRXlwjDgmoZL5DZQh7xJueJugHiUApJBmN3JkaIaaI69LD6cDKxjcNZaZjU3nVgG/t0ZDjq0gBDUHGsIJ5V9JFRAwFccTGdnIPrEhLs5GIfTLc4NI2dTUgZboHJ2J5BXcvE+stiHktMQSnBMszlIwDKwMqdPne63LDI4tkheV4VmVgbXz87XSJ+hwklNTaNp02f0W1dchwb29eDKhMuYiEztzlUiTLJPPYSHZcPdgwpE5WjdyWg65CZSdmDVwEVpYj9RDT0rkZqaIiw2Kmk/Bx/B1NRUiws/c+aMIU1YBUehOHb8aASaebX9QECZWZnC0uMzhBGJlVADgYIMItlIXrOAY8Z5JXPUKR+/t9srXJxwGRORjQTc1bjo8FUa2R8JvrtlsAysgNwk6tHLEW+4pHFTsZDDdlzgnRy87Ni2TfiZnR0d3ERfoVdefpV9yXy68847h4gsmcWPmwTNIFIJWuegzOirnQNE7PNL6/J5hiJC7BcpIwFvG9EormUk4Njc7K/KT9TjGJRGD8cjW3s9ok5kORxM+Hv54nLFIEeGDls1xAnyMjjBKRxUBNM3wp+IhnDuvfdejozniPD93//zWfqnf/wnjhj/nX74wx/RlMLJ9BdPPCGiY1koMhMlPxXHhkhaS2R4xTvAfAhWyzUAqN9QmipEhm18MwAEG0q/KhIQrfPexWdYZbnbCmLGTQc/DcYA+0SZGmMiMjj0kYL8mov9FYiokpudCxcuSHMGA8e8tbVNRD3Fi0uk0gE6VPyocEDFzJ03l77D0TFSF6lcYQgUCqcU0kMPPURP//BpWrlyhaoFQsSckZEu5h0+dFhEqmog+EEziQBm+fLlUmnkoKIv1dYIccN6TZ5cOMTKhgNEg2PEX1wP+GlylIpjxnmhnmAIunu6RaJejTERWau0M/glak6vHqjIkpIScdfCed6+fYeqNdu/b7/wxVavWklTpkyRSgfoVtz1MPmRgPzR1rffpsNHDtPChQvp8a8/Ths3bhTRamamdjdLamoq3bpmjagI3OXPP/ff0pwBMA+9JJj/uc99jubNnyfNUaeXrbtsodRA8vlc2VlR0bjmc+cvUI3MZZRWEXnNYCCeq+zoN3KkDGAV8/Lz+28q1AkE7GWXAG4BegwgRjVrFnKeDDvFxmBZtr79jqhg9KXN4rs2iUN1mHocOE4SGfGzZ8+KA5o2farIC8lNAeYfPXKE9uzdx2V2SuV1p8+YIe48LIN15i+Yz872Ab6obRw6VwrRFnLzhBNA5Lln95/o/154UYTcm762aVAiFZYB6+16/wOqqKgQZcjnYVncjdgP7k40K/C1hJ/F5wJLgogPx4DlYA3eeeddennzq2IAH/yw85WVdKG6mmpreaquEVFpF+8Px4x15WYJf6ewxUPEiHwiuraa+a6fODFXLItjRK7xxRc200y+fk899aQIYmTka40EKTq5ZdBdhv5bZP+7hRPuFekTpH3OV5SL9VLT02n2nLn9QZESnBPOFcKWxQMwHs3H89AB7/V2i+1Wcz1fZKuIbWAQ5IJFxf0CA3KwhXwkyoXgeD21noGQu5WwgTfffJPe3/WBaKrQeYroCXftsuXL6KtffYQ++eQTev211wNNHE6QT9rJ5hUZ87/+m7/iZtBFmze/LJK1yC8BhOi4S+7ZcDfdc889ogzUcCW++uprdPz4cSGItPS0QNKW/+EioSm77777RHeNEmT3X3n5FZGklR1eiBnr3v/AA6KJe/bZZ+noJ8f6h6/AJ8LFWc7n8cgjX6F0KamKPtPnnnte9FlC4Kh4/EVlyjcFQvypU6eIhPOiRYvEegDLlZ0toy1btvB2SkVXD7qh8tn3ElaCBVRcXEyf//x9wnorBYEb8eTxT8VneX9qiJaCjwNNGCoZSVXUh1IMMtgGhFXJN568TfwNBusK34u3iyxBNtddBgcPwduEHnADoTsONxv+4hqqdc+FLDJUBKwT7hynZJUA7mTkiZB0vHTpMvtRFXyAjv5lenw9rPouWrbsJnFRzpaWifZb+ZuQML2T8ibRDLZoMrgIsDKwRrW1tXyBGkU5Mv6o1Hw23Wp3DawGrB+GJCuBkz1t+jSxD2TaETTgLpTBBUfuDP6XvF2c81G+cZ555ufC98vPzxPluAaN1xqpvS0wXh4WApb27//+J6LHQQbngKE2lZVVVHX+vKgMK1uLnJxc0QOCddR8JogZ3Tqgr1c7qsS2IAa8Q02OyrXANmB9Ojsl14M3qSYyizUw7Bp1BeuslmME2B5aLlwjbEcWpRoxMTIWlYgJdztOXu9iyhcuuKmQKwrrYlvB28B8TCiX18XoiWd+9gxlZGXSt771l8JyAewDzcqxY8eE1YRFxHF9m5u9tWvXimWCkSsjlHMwGjFxpvJdJftsemC+LBTlJJcDbE9tvlwOkD75u7/9f+RlB/2pp74t8k1o1jEhh4ZUy2c/+xn65je/IdZFygTOvBYBixPaORiN+DrbMHj99d+KMWwLOOpzS2G7Grm5OUJAaK4QXJgMxRSZBohQExI8VMERZRtHdWqg+YNTD0cdKQsEFyZDMUWmwc2rVormr6zsHP3Xr35NdXV10pwA8Ovgk8HiYXTto49+VdNJjndiwvG/ESCX9otfPEt79+wV0R7yTkg5wBfjyyZyU0hxYGTv1x7/mmqUaBLAFJkOSD+gx+HggYPUweF/V2cgT+bxuMUATAzWXLBAfbyYyQAWvks5cjd1pgdGNaDXodvbLcZmJSYmUEbG0ASlyVBE9N7Q0NCnltQ0MRkN4HZY0ZOOLgITk9EmMFKjhf4/zWAohU94QasAAAAASUVORK5CYII=;" vertex="1" parent="1">
          <mxGeometry x="105" y="480" width="61.56" height="70" as="geometry" />
        </mxCell>
        <mxCell id="j9wAFBM-4F8-QUCNC5Rh-9" value="" style="shape=image;verticalLabelPosition=bottom;labelBackgroundColor=default;verticalAlign=top;aspect=fixed;imageAspect=0;image=data:image/png,iVBORw0KGgoAAAANSUhEUgAAAJQAAACgCAYAAADq10VvAAAAAXNSR0IArs4c6QAAAARnQU1BAACxjwv8YQUAAAAJcEhZcwAADsMAAA7DAcdvqGQAADpbSURBVHhe7Z0HfFRV9sePkN4raZRA6C10kaIoICAqigWxI5bd1cW17n9F18ba6+qKva+sHSkiKL1K772FEkIoCemF8r/fM3lxGANMkpkkhvl9Pg+Sycyb99793dPuOeeek5+ff0I88KACOOecc8TX17fkNxvqlPzvgQflxokTv5dFHkJ54FJ4COWBS+EhlAcuhYdQHrgUHkJ54FJ4COWBS+EhlAcuhYdQHrgUHkJ54FJ4CFUFIKJcVlS5NsKzlucCWIQpLCyU7OxsycjIkNzcXCkqKtLXjh49KnXq1NGjbt26EhQUpEdYWJgEBweLj4+Prov9EeHn51fykw01llDHjx/XgWBQLHh5eelipCsfPt+Tk5OjRCgoKJDi4mJ9nYH39/fXIyQkRLy9vfV1CxAI4uzYsUPWrl0rK1eulE2bNulrnMci0rFjx/Q7ANcNqbgHDs6dkJAgPXr0kPbt20vz5s0lPj5e3/NHQY0iFIPCw+bhHzlyRDZv3qyDsnHjRtm7d68ONIRiYIA1q3noHElJSdK0aVN9jb8x0yECA1IW6fg+CGPuWdavXy8LFy6UZcuWyfbt25UIkIrrycvLk9DQUCURAx4REaHfde6550qrVq0kPT1dJk+eLAsWLJANGzacRPrKoH79+tKnTx8ZPny4dOrUSaUX91OTUSMIxcBmZmbqoC5atEgWL14sS5culdTU1JJ3lA+NGzeWFi1aSKNGjaRNmzY60xs0aCBxcXGlEu3QoUP6PdOnT1ciIFEqAkhmL3UsIMUgNSTgQPrw3byf7+eeOSBzVlaWkpZJxKThsAcTo0uXLnLllVfK+eefr/fGuWoiqp1QqAMG9j//+Y8O6r59+0rVjCMYCCQFF81MxS7h4VsSqywEBASoxIqJiVHpdeGFF+rgfvDBB7JlyxY5cODA78iARIOAHJDBGjwGHSKmpaXpdTp+DolywQUXSLNmzSQxMVGlGdcbGBio1wwxUNP2hEIacw8Q6/Dhw6oyt27dKqtWrdLJZU8urptJMmTIEBkxYoT+XNNQrYRCAt13330yYcKEkld+Q3h4uM7KDh06SNeuXXWQUDUQhIEBEAlSMbMZ5J07d+pAoLJQlwwO0sMZoFL69+8v5513nv4MCS2j2QLnggQQie+EkEwCiHDRRRep3QN5ylKv5QXfsWvXLvnf//4n33zzjaxbt67kLzagal999VUlcE1CtRAKCTR37lx55JFHlACAmYtEwDbBZoBEqCjURnnBbEeSQDAMZGyjbdu2yf79++XgwYMqFUFkZKT07dtXbrnlFmnXrp3+7mgAHy+RJFAEojhDFt5/JCdfjuQWSpY5CoqKJSuvUHLzi+SYIcqxYyfE26uu+HjXldBAPwn085HgAB8JC/aTAF8ffd3+Ovbs2SMTJ06U77//Xu8H+87C6NGjVVphQ7qCyJVFlROKWf7ll1/KU089JSkpKfoaZOKhXHvttdKxY0ed5fY4euy4HM7OMwNSLHn5hVJUjM1yQurWOUeCg8yA+HubQfGVAD9v89rJhGBwMZKRYEisFStWqN0E6UaOHCkDBgxQyWc/GKkHs+TA4WzznfmSV2AIUXhM/+7nazw9M+ARwf4SERooUWGB5veTvT3Ata3cnCqfT1shC7akip/57NGjx/Q+zAUJD9j6Psjj4+0lYYZY9cKDpFFsmLRpFCVtmsRJQ/OzdT9ILO5h5syZ8u9//1tWr16tr6MGL7vsMhkzZoxOyOpGlRKKh8Is++tf/1o6y1q3bi3PPPOMejP28Ze8giJZsWmvLN6wWxas3S27D2VLniESBGFEdFA4zPv5SIghU3RIgHRuFistGtaTVo1jJD4qWMLNaxb4LIRGQvIztpGl0g5k5sic5Ttk4oINsn73ISk2g1/XnJdzozUZV34+ajhx1BCmjiFzXKi/dGoeL306NJZOLetLlCEZ0O8x78nMyZPvZ62T9yYthUeGHPpnGzgZLzrAfExOmD8hoS5o10CG9+sg7ZvGlV4nzxBTgQn52Wef6Wu8F5tt/PjxahpUJ6qUUNgbd9xxh4ptHhC2ygsvvCDdu3fXvxebWZyekSPzVqXIL8u2ypptaVJgRtDbDJ4OBoNwCiAVjCZRdYLkCvTzkvjIIGneINrM9lhp1ShaGsWESaiRLhaQdHsPHJHpy7fJtEWbZMf+I/o6n3cGkOZoyffFRwZL7/YN5fwOSdK0foSEBfmbe7QxaNHaXfLhlGWydvt+JbS9NDwlDNmKzLmD/X3koo6N5fLebcxEiVYpDPAM33vvPXn99dfVsQDYf2+88YbaV46qu6pQZYTCbrnzzjvl66+/1t9x599//301ZLl5JNJ0Q6L/TV8jm3YdVOlzJhKdEmYwuAlmu5nQagfFRgTKc3cNkORm8fqWIkPeSfPW6/dt3Zeh0shZIjnCkprF5gt9fbykU7M4GdStqSFXEwkxxALpGdnyw7wN8tGPy4z6O64SzhnYpJ1xUox9NaRnSxnap52RvCElfxX5/PPP5cknn1Q7i0mKYzF27FiJjY0teUfVwpFQdR999NEnSn52Kb744gt55ZVXVGQTo/noo4/Ui4NMSKa3v19kVMMyOWhUD4OrD7wiZALmc0iBOubgXH5mkO+8rJtc0LGJIU0dyTXkff6zWfLh1BWSbYzn0u+rIGxqFylqzoFKMjbYnNUpsspIpMZx4RJjbKNAf19pZyRls/qRsmrbPsnOK3LqO233gTQ9aj63X6Yt3SrtEutJdHig3h/SCIN8ypQpqsqxE/FALROiqoE9bA+3EIrZc//996tRyRf+/e9/l+uvv14fFpLp0ynL5ZOfVsgJMxi8Zv4p+aQLYM7Vt0uS3DqosxrQR3IK5J0ffpWvjG3jgwh0w/cpwcyPqQeyZcaybeJnjO760aGqrjC0G5tjnSEbXiCkOCNKrpH/8oynuHTjHmlQL9QcYeZ51lVSRUdHy7x581QT4HgQE8Ok0OdZhXA7oRDZeHXjxo1T6dS5c2d5+umnNWCIZBo3bZW8PWFJxdXbaYBdlRgbIQ8M6y1xRk3gaX0+baV8MX21eCOW3AwkEPe4eMMeDSMkJURJqPFKIUKzhAhZDakMwcsz6Lw3K9c4LFv3GckXaLzCcLXVkpOTS4PE2GnE4oYOHVqhsEtl4Egol1tyeHPTpk1TcczNDRs2TGcTWLc9TcbNWuMWMgFsmtsv7SyNzeCBmcb4/nTqcpthVUWAAEjeCfM3yr2vTZStew/pa3iFL/1loEorjPvyoK6ZDAcycuXR96fLnJXbSl6rq1If2xSwlGWFFqoTLicUwUUWeAFEwhNhPSsnv9A85A2SlZ1frhnqLPD2Lj23qVzUOUnVyq79mfLM57OlqMiQyQ3fd1qY7+Mrt6dlyOh3psr6nen4DUa6RMi91/ZUI1sN+3IA6WeoKm9++6ts0PMZx8MY4oRhACsIrlyorihcTihuynJrW7ZsqZFwsNu46PPWpJjZW74H6Qx4uCFBvjKkd1uduTnG7vjcSKbsvGKd3dUFH686ssN4lK/8b65KKkjRpWUDue2STnqd5SUVSD2UJTNWbFcpR5ATu4n/Cdyi9k63zlkVcDmhELvETEDPnj1LdTqR5ENHsB/0V5eCcWnbOEY9KrA5JV1mrdop3l7VRyYLeGwrt6bJm1/PNwQv1Ej5oO4t5NaBHSW3yLl1R3tgJ67ekmokEZOlbmkmAnYUaTWnWmivKricUAQxrZlHAJObzi8slplmVimZ3MAoP+PNXdghUYICfNXdnrVqh6rWGgFzv15GSs5bt1vGfDJD1/dYerlzyLlyfruGShCdEeXA3oPZkm/uE9OhXr16pYaxfe5YdcGlhGKWQChAGoe11nQ4K1827TloM8bdgHphgdK+WYIhbx3JMERaumGvBjlrEvAy565OkUnGWC8ssg36zQM6SXR4+bwyJB73mGPUObBPwmMiV0SNuhIuHWI8DcQuIHeH2QM270437nKhxmpcjaKjx3WZhTgNWL5pr81ecceXVQJIk+Nmwn01c7Vs2m2zMTuWrAuyhFQe6Pok4XQD+/VQ/neHw1MeuJRQBDQtsHhpheU34ZXwgxtulrW1Xu0aaXoIs/OXJVt0Mdcd31VpmGvati9TPv9phTGqj+uyzbC+7SUsyDwnZyUL92V3b3jQ1joeP1vSqrrgUkJZxjiwzy7cY3R+RdfNTgszCGFBPpppAPZn5MiqHelVEsSsKPyMo7Bw/W6ZssgWWiGEcEO/ZCk86iShzD3jLVrPkwxQAsig1hGKTEYLlv1ETtAhNxnIpJa0ahgtkaG2lJXNKQckI6t8kegqh7k2bKjXvl5gbMs8Y7DXkaF92krD6GCbge4EWNrxMRIZYIgjmSETac+OkeuqhsttKAuk9AK8roKCYvFyg4QiFtOhaZxmQDJLl2/GGHdyplcjkDD7M/Jk9rJtet0hgX5yac9Wtj+e4frhXJC/r/j72ghF/IlzYEuxaFyrCEVWgQX7le/C4vLHW5wBtlKzBlH6c7ERVxt2HRKfM6k7Bqw6SGe+U3O4OIzdx0L1xMVb5MCRXP1z9zYNNYPTmSuLCgsQXyOlAFqB2BMSipWJ6sqLsuC2b3d7PMQMkJ9XHWlaQqjs/EJjq2XJOXaSkAEsNrYJhrsFuFRsVCWDWhXE4ho4AgN8dR0vOSlGzm1dX3q0bSC+5voPZtgIlRAdIg1jbVL9TCBMYjkhrJ0ioYiWk3FQqwjFLLFgGYruREigj0SWpPwyMNkFRUoSQgkZecWapDaoW5I8NKyXvHzPJXqMuaO/jBzUUXO58w2z3Bm3yS86JgmRwXLv1T3krfuvkHcevlLevG+IvHTPYHnp7kvkFfN/y0a20EqwIVzT+HCnQiv169kqdAgfUBCLhIJQlHHVqrABM8SCtQTg7V1X/Hy9XC4MzKSXKEMmy9uhqIEvqV8vXG66OFm+fOwamfD8LTLmroEyrH+y9GyXqEf/bs3lL1f1kC8ev84M6CBpHB+hBHTlBbJeGRzoK6OGdpPPn7hObhjQUVo0jJKw4ACN6pMASMiAfC0rbRi7inx48stPB5ZumETwhmfM2ilpLIRoqitr0x4uJRRlUBaoMQNeZiZFGkmhsSEXI9gYs2QWIGXCzWA9fF0veW3UYLl7aA/p0Dxe7QziPXmFxZqflHY4S44YjxMVxMBc2DFJnrlzgHRsFmfeV3LSSgIykcc+auh5cvPAzuow2HLZs2T+6h3y1S+r5ONJS+WzKcvkmxlrZNXmVL0eUGjMhDMJdh9DxPr1QvS+yTAg9sf9UxZW1blQZcGlhCIyTokSsEqmEMEk9LvD+yKh3xLxJPQPPq+ledihShawadcB+XDSEnnk7Z/kljFfy13Pj5dRr0+U1/43W3anH1Gp0MRIqAeHny9R4QGlA1sZFBrbrG+HROnbpamRzl66jvnF1BVy45iv5M+vTZaXv5ovL36zUF77dpH889NZMm7WWlu5lQFkPFO8LizQX2NX3DdeNSoPUHhaE8IlLiUUN8RMAeREWQWWlp3gSsBP1ArfyQE58KCoavnyl9Uy7PFxMuTRL+T1736VBet2GaM3VLq2StB879lr98hfX/lBlm3Yo0RvEhcuvds3dsrDOi3MuYoMOS4/v40ElEimpz6aLlOXbpUnbrlQZr82Uma+cbt89n9XGnXtJ37GI42LDFISQea8fGMmnGbi8Z5Y8/7okrgbZGLiYj9ZlUTVDZcSCtCoAtALgKpdUD8mXLxdvDJsm4y/zcis3AIZN22lPDj2JzP758v2vYcl1M9LAoy0ap1YT43xB6+/QJ4Y2U/euu8yGdKrtfy4aJPklKSUdGkRLwFlFHGWBziOzWNDNfUXrNqSKlMWb5X2TWKka+sGxkbyVzWcb2yf3IJiJVK4kThMCFKHCQCfjtSYDa2NLYYdBrCf6IVA8UdNsJ+AywlFQh0xKMrArW4q9Y1LTOzElR4Vp7LOh8qYsWyrvG3U27bdB+WE+Z3EOpv0EjmQkWMGr44aw0gOpFUXM8C70jLk4JFcfR+52uR/VwaEJ1o0jCxVub+uSzEEOaEJcR9PXqp1h19PXy0vfjFPCo0HSJQ8KhRCGVVZdNRGqNM8omJz/mRj7xEyAGvWrFFPr1evXpp1UBPgFkKRukLYwDIYA4ytY8ulLnmTi4BKMbTSAcH+IJcb1acvlACypGXkyahXf5CFa1LUOCYj4fUv58p6Q760Q7ZuJ9FhgXqcdkTPAAzl6DCbYUwd4KHsAvOAKTIokHcnL5cbnv5anv58juw9mKWEx/ulQJRrzDeEyjXvs7v0k2GuKzTAW21F3k8vhzlz5mj4gJY/vFYT4HJCETqgkwmggwiEQsy3bBBVeRvFDjw/SrIMj8yQnaPhiVM9VBaL16YclMc++FnuNrbTg2/9qDVvxYaQ21Nt649IrkbGoK9MUB9phAoFqLMwY+Nxz1yXn3cdo1LrSrBRw5bhHeTnq80zAJ+DeKcCVcUUlEaE2MrfqcqmDVCTJk001bqmwOWEoqOJVeVCYy/WmkCi8ab06VZCAjgiz9ghEBYekQV5ullK1iSDtu9Qlta6ISGQmFt22fK3fA0h6Y1wrJISateBbP0ZFUv5VKGRVKcCKjjQSG9AIWgBWZj6mwPMNdU15776wnaqJsGkSZP0f7rW1IRwgQWXE4qwgWUgYpRbhnnjuAgJ8nftwqU1WBCJgoAzwrxPScdhYMbcSKiMElKeowSwXPiKwHBUtu87LHmFtsoTkv5OR3J/o/L8fGz2EEtHNhX+eyCFG8eFSYemtrJ6bNNffvlFTQvUnWM5eHXC5YTChSV0QF4OJdKWYU4rHCLbPBxXQIWd7ccKA83D+p+VkktxaGFlDD1zvr3GXtuVZmvC0bJxjDSMDFTClgVMAVQ1oFz+VPV6vIwxHmKcBs5FmjX2KZOXgs/qzjCwh8sJhZFIFzrW9WiCSpwEAz3QuLoNnFz8dBZ0abHH6aRBWeDdmblFksMaoEFoSaOLioLv9zMe2Oote3XgWZ8jm7QsjjoGUf19vJXgv4M5j4+xv7q3sSUsklBHMzL+J4nRKlOrKXA5oQBNVCntoUclrQpZc/I1hCKA6O2ManICPHt7AiEEyskn/QA2E13nAF3lIERlagf9zeAvNl4ktYGguyFUkL+37QLtgDeaX1QsRSWlVLb6wbJvgD4JPDuACUH8CcJeccUVJ6UM1QS4hVAkelGTRzYhEXP+x8ZpmhChyxGuAt4SQ8DDJWm/Iss7qDiMe0B8R89ZpqhwDhBlo/EoU9JsDdaSm8ZJg5jwMlV9QeFRKShRtyFGmhFGcAQf69oyQWIjbXEmvDueaVRUlPTr109fq0lwC6HwOojeAiuaiyokeGhFeV0BFoeRUhCKzFBHKVARVJxKv+FgVp6s3JJmVN1xCQ30l26tEso8MYmHrPUB2v/4Ih31t99QYARYTyPl8AgBsSdyoK655hpp2LChvlaT4BZCMcgDBw7UnyGUtVBMAhkkcAXgTlDJ4jDGbE5+8e/skoqg8mewZY8u3rhHyULUvHfbRprm64g8o/Jy8myq0d8Qxs/YUfbgfppEh0iXVvX1PpH03333nUbHb7rpJrVTaxrcQihA70fLYCQeBTBSOzeJOSmDsqLA5Q8P9ldDFkJl5Jx+2eJU8Ktbp3TJBQKQG4XEqwwwE9du3yert+7T31s2rmdI1VCzR+1BYDYzj+s+oSEEGtKWMpprMCS64/IuxlzwUseGXussCNO0lRL0mgi3EYrOvjSdBzTGsgKc3ds0cEluFCrUWragD1RmdkG5icD7ye2mvTOg32exGTjOWRnweXo6fTVjjRIByXNN32Qljf01YvxbEgrSIHEtkPPXtlG09EpO1N9pQEJLSZ7rxRdfXNqcv6bBbYTiobI3CkE3tt3YvXu3vp7UIFoSIgIr5UkBIsbhITYbCkKxbFFelYc73yTeqGFjv4AMY/u4CkTmZ69KkaUbbMWvZDxc0bOFEsUCkjpHo/1mIMz7saFUeJsXkLpDL2xrVKUtlDFjxgzdyoSllt69e2ucrybCbYQCrDGRdMfsshrex0YEaTpHUSUJhTfG+hvGLmciwl0uwWIGjYHskGQrEsWA3rrnkHH7XTdQqOUvZ6wuXaO7sk97iTf3b00mLpdsUtYAWbbxMrqSlRX+2s6oyW7GdgJUtnz88cf6M5HxmrhFhwW3EoqkeWYUYMsJxD+ueZ/OSZqIVhkgmY5xjkrw0te7jrQrWc6gK8rGlAO2PpwuAoHXJZtTtUcmIQ3SeMjkPEdjTr8Hr3Kgzi/q1ETTmlGRS5Ys0YVgcN1119WopRZHuJVQ1tIA4pnYidX74Fwz82JCjChHRFQQJKQRxwGcH4O/XALKHLERwdIuybbueCAzVzbvPawGtctgSF9oJNDkhZskx0gpPL7LeraURjFlrxhwTRwUK/Tr2kzVOp4dmweQsMiWIuw8UZPhVkLh1rK5IIYkyzDMMqSUv5+vJJuBrIyQwm7ae/CIznyWJuqFB+oAOgu43NLYNVGhNimwcdcBW9FlufTmmcHZfjV21NJNe1WqJsaFS5+OjaWw2JYEGGk5FuZhoP6KjCd4afdmGsjkdVpMfvvtt5oSdO+999ZY28mCWwmF6KbRPSktNNKgYy1rUMy8dklxajNUFBivW3YfUrXHIitGbx2jTp0FZUy92jU0npePBhiXbkotlXguhSFFoTnv5/RIzyvUtJbLe7aWpNhQc711JC4qSO2nAkOmtMw8I71CZZjxCHlGeMb0eicwTINWK726JsOthAI0zejWrVtpC2SivCxPkCxWmZRb4k/Lt6QaL6lQZ3K7JrFS36gwZzw93pMYGy6dWyTotaQdzhb2meGc7gBm2cpt6fLTwo36e5yRPqOu7Sn+VLBE2vpaZbKblZGQdDGOMCoP/PTTT9qim4j41VdfXeOlE3A7oXgI9M8GhA+o14MACfVCJLISKbec40hesUxdtFnVHnbH8L7tbDrmdOc0f2M/mQFdkiTGEBDMWLpFU4PdRSiklNHKMm76Gq0NhMRs43F971a6QwLYmpohrRpEGamZqPdGiRSbVGJDkTNudfut6XA7oQAPBHFN+IC97EB4SKD0MMZ5ZVJu6W3w1cy1knrAln90cfcW0q9T0kmxHkegKmPCjdF7rk19UPj5zax1jLkOvLvAgvNuY/P9snirUbE21XrjwE4azMSuXLJulwww189eMfSFICOTvCfyy/785z/XmCKEM6FKCEVrHxYzwaxZs9QmwEbo0zGpUmOIKknZf0T++/MqY9Qe0yrde67uYVRZvLGtypZSZuxkYJdm2ukEzFm5XfYeYvHafWSygMJiJ6x9B22N2bD9kEZb9hzSsqrz2jTQ62DiffLJJ2p34tnhKfO+PwKqhFA8DNJZ8PrYZYEFY5AYH671cIWnEymngzkvsaRflm2Teat2aHCSqtoHhvWSto3raSRalzosFWj+Dw300U2FMITJMf9x8Ra39K4qE+Y7125Pl4kLNqlXB6iO+Wr6KrnZSCukE9eLV8dyFRkb7JNTExeBTwW37UblCEQ3Rjk2FN7L4MGDxc94WGywM9WoAXX4KjgLC4uKZUdqpjRPiFR3OzI0ULq0TFApxS6dBC1RrSTTUYZ0ff9kTaPZuDNd94EhBFGVEmDHvsOSEBkkSfWj1ORrbq4pqaTHOvG6//u//1Pb6fHHHz+pIlibtRYXq6eMjUUYhsnJM8WjRi1WtSRzTD+ukj2HAQ/h5Zdf1oNC0NmzZ6tdlV9YJLeO+UZ2pNm8vwrBEIUJT4+lsQ8OMV6ULYuR5LWdZvCWbtyrNXl7jOF9SY8WulMVIQs2Mnr92wU6qIxDVQ0G63Tevl7y3v1XSJsmtqUfQA7+XXfdJT/88IMmKbITqtXRBiKxBMOaKFua8T8qkYYZXDcrEkgzFuSrMsfcMWpfZYQCy5Ytk1tvvVXzo5599ll9eNw82499OHmpLdJdkUE1hMLovbF/B/nTFeeqZ4mhy6y1ByoREAvCMMa7W70tTdaRYbkvQzefdjupzLUS2QgK9JVbLu4o1/Ztr219uF5U3d/+9reTepVa4J7IMOAgyMmyFqEYdmqHWKhKbC02aGzatGnJp9yPaiUUswkS8eDYMJBNGSm5YjOc0e9Ok1TjBVWEUPRYGty9udwz9Dy1Q/geEvlxBqjAoU7Q0Q5R26rkf7Yc+3XDbhn3y2pZtyNdMwXcAvNddb1oI9REyU9vKgKstj+d0Ik2depU9e5QeZAMYC5wDywKk2fGM7Nq8QjFPPDAAyq1IBsJeHRiqSpUK6HAjz/+KFdddZUONnvoYkuRaPbGtwuN+77WSI/yDWZB8XHp37mxPHT9+VoGziBMmDBBHzLuNxkPqAHWwOhfxex13IUdEOykIf1dL36vZVVukVSGNL2TE+X+kv38ANeLh8dapAXUG9dukZ7JgCQv65p4zz//+U956aWX9Hcm6yWXXKI/VwUcCVUlXp49LrjgAk0PJmLOzfNASUO5rEdLlTQ8dKdg3ocXx07ij4/oJ/XCbXEaVuYffvhhXUzF/Z47d67uKH7llVfKY489prYcwL6aOHedbupDYh1j1apRPXnkxgtstpyz11EO1DGkuOr8NqVkWrBmp9z2zDfS/74P5MtfVsmhI7maG39Onbrig3ozg8XB76QVo5LTM7P1eu0LMizVjr1l30WwOlDlEgogpdiYEa8EUrGnHm70vz6ZIROMS+1M43pmZqvEGHn+zwMkxpAJYkImJBO2miPwlpCISChsqW9nrpX/jF+kDS26GY/w8Vsv0iKKQ1m5cs8rto0TyystTwtzvZFGgn78yFUqSfmeYf8cp1uW8DXYgA0ol0qIkDjzP6XxSCQMeErnWbjOyy2QJKMmB/dsVdr9GE+PGB+21KWXXipvvvlmaSuAqkC1SyiAlCJRDCn13HPPqVFJoPPOId2kRf0IVT9nQqzx5P529XlSzwwO5KIxx0MPPfQ7MlG3hoolUGgZqzOXb5X/GEcgN79Ygoy3hWG+YI2thSPZm5SQG865FITa6N5rFSssWb9bUjPyjFQuKdsy95CyP1N+XrpN92R+f+JSee+HJfL2+F/ls2krZfOuA9IzubHcNKiTdj6GbOyrg3Ozbds2LUu//PLLSzsIVheqhVAYmXh73DyBTg6Auz/i0q42b89OpDuCQoJRQ7tLh+a2rrck7j/yyCMqoQA2Ut++feXFF1+UmTNnyqefflpackTXun+8P92ovuJS45t/6S2gP5vzBQb4CFmUrgSSJjLEr7TxWmZWgWQZtUvhAhOIOcR7rP+5R956rpGe/7rtIvl09DUyvF+yRJkJRFAWMo0aNUr3dsbeYmNr1kyrewG5WlQewMbB4/v555/VYGbQqZLJzi2Ut75fKN/P3aB2jT2QRKSoPHJ9bxl4XkszOHW1T9Kjjz6qkgnjm/wr3GcKIe27kmB/aF+obxbKztTDpVKBnuUtG0bKk7f1k6b1ozRxb8ynM2Xi/I3ONeBwEhCkf+cm8uyfBqrNw9b80xZtNlIqW/KNUY7KJwEPCRYbHiQNY0KlYWyE5mtZHVoAAU0aZbz22mul0hgyffbZZ6X7D1clqt3LswA5Jk+erPqfiyKIh9GMR3MgM0ee/3yWzF2VouJDvRvzfj9jvN86sJPcOKCjqkjWBEeOHKluNAuoENI+PEBkma3tURczl2+XBWt3lRrg/IMkoMz76dv72fKpzEDTAeWJj36Rn37d4nJC3XJxexl1bW/b/RhgWEMkXYYxo4BtzX15OUgZ7EOCnkhgUqkJLVixKiYPdpNVWFvVqDGEArjH9913n9abQYSvv/5aBgwYoH/LKyiUT39aIW9PWCq5RjVEBHrLA9f0kst6t9ZAIEG9t99+W8aOHatqjZAAA8XDZ8fLDTv3y9J1u2TVjgO6mXQdM2I6jCWDScZk+6QY+eeIi6RJXETpILuLUHzfP4xkvdaoLWfBhEGS46lyrxjeeKlMRsAEwjZEwjsGcasKNYpQAMMc72T58uWqpphtgwYN0uUZvLGUtEzZd/CIJMZF6tIKgDRfffWVPPjggzpDsSMwvnmdDsDfzVknu41KyS+0xZPUWzN3yR7E/n7eEhcRrEUAV17Qxtg1tnY7HLwX9/zxD3+RqYtdSChzbtYSX/vrIOndoYlOBiYR6toKUvL9BDNpMEKAk9RfHA02prYHxGHXqSFDhsjdd99dpVHxslDjCAVQfffff78ucrImhbd27bXXSkCALXPRHniEX3zxhdoQPHiWIZilFD/q341rvTf9iOxMh4g52qqHBmDBAX4SFuBrbJMQ7dJL+grqBbAgy+ASvsCGevS9nzWDwZWEAu88dKUkN4vX+BgTgcnkLChHI0qOjYitSBZsWQHaqkaNJBQzkxnL4iZqkBlLHtANN9ygD55ZifRhSeLf//63xq6sHuiA5RVep7DUUl0ACcdY4kURrMQ7sl+AxsaigBIyIyVxwQksuppQSB9aVn/wj6u10T5uftu2bXWphEmDoW2pMQsMFPdFpiaFnSyko+J4NpgH9vdZnaiRhAIQBnVHXMp+5hKkQ2oRGrDKsJih5KqTb21FvnnQNJBAsrHmxezlZnGjLUJCIIjIWh8tmZFsrPnxt3/84x8yevRoXTQe/c5Umb1yp8aIXAEITcP9/z4+TL04ej0Q1mBZCO+WflpcF/fC9XLtEK26QwDOoMYSCvBQGWCkFQ8daWUPqmdYtiFMQCyLxWXW7WhqBkkARGOAMNJRE9ww62Cci/Oj2lhIRUpAXEgG4chB4rwqod6dJjNX7HAZoegv3qphlHw8+mr14LhHiI8xTXaAVQz7R0SNJhRggBn06dOnq3sMWTDQ6XZL4A4VaNlWkAT3GYOeChF6J23caKssORM4X//+/eXdd9/Vc2DgP/nkk25ReQQv+3ZKlBfuHqy/47Hh3ZLFikNRlUslrkaNJ5QjUEfYC87YDESMUYt4RhwY2xj6FJlCVDwqCMm6Hn1AyXZkTRF1es8998gLL7ygXp6rwwZ5Rcfk5v7tdWsQ7gdp+MYbb+iCNeSqaW0NywNHQrnIjXEfUEfOGqCoNrb3Jx/otttuk6efflo+/PBDDTFgyDN4VN/iKTl6kAy0LXRgCy66EjgDCdG2zQBQu1YDNtRyVWZXVgVqPKEqCojI7MHAxWDnwO6yN3T52SKrvZdlbYroKvh6nSMRoba2PNh6eHWAuNsfwfAuD2otoZwBbntZA+oaU7wEhqiUdxFMBahfgpcACWW/2XdtwFlNKHtVio2F2gOoKFcBuUcxZ1BJRiaEQu0BbDpn1fkfBR4JVSKhLEIxwK7sVIwmpaE+vcpRq4QqrBAHSyi1DWc9obC1AB6iEsr8rJtLIzns7KrKICTQV3wMcSEU+wiy6AtQebUNZzWhWMKwCJWfn28LpBoeUSLuqlgKKz0Rwf7i5W0r7aKeDqMcMlOoUdtwVhMKgxjvD0AmS+UFGSPabsmvUuB8cVHBSlKkIBKK7yIeBqlqG85qQmE/WWrHklDwKCjA22WxKDJD4yJsmQ2cH0KB6kqIczfOekJRgQuwa6yF5rBAP/Et2ceusvDyqqu9q5BUZFWQ5wRqyi7mrsZZTSii1Cw4AwiFlLJUnuM2GRUF56HMC2A7kYFJwJWIfm3EWU8oS+VBKCuCzUaH7AdcWZC2Ut/YT1amKQvXrBsiFWtjyACc1YRCGlkqjwwHpAcINm5+RIi/ljRVBqSt9ElO1MpoDH76EBA6IPOyNoYMwFlNKGCVbhNwZC86QMP5Ds1iK0UopFNYsK/069ZcDXIrdRlQ9mRfnVObcNYTCluGqltAsh6AAIN7tNIdPisKvMU7B3fRjr+Ank+k0hAq6NSpk75WG3HWE4pcJGJCgJx1iihRSw1jwmTEgI42KVWOiDmfJW99QPfmcmnPVvoawUxSfQGFEB5C1XJQoGCBtGJrrW1Y/w4ysFszW1fh05HK/A0Vl198TO2lkUYy/XVod91skoVgqnrJKsW7o9WOZbfVRngIZUDRg7VZJGnHdIcBNAO795oeck2fNkoqsjkhjkUg2glRwMk+1I1jw+RvV50nnz16jTZgpQcBoJCC3RAgFpsmkiFaGyPkFmp8CnBVgPwk0nLJ7iTrgO1EaDqPamKtj74I7Hs3cf4G2b4v05DomHYfJougY1KMdGlZX1o0qqfeIe0W8ejwGilGoDSMkAR545SRky1am/CHyymvKqxYsULuvPNOtaMAFSmQgQJSMj0BUiknv1CKDel8vbxUgrFdmwXsJ2JZ8+fPV5uJwgmWW6jupebPXrXWFngIdQqwcEsPAft2grQbQh3SxAypdap0XUIClGZRdQORUlNTtbkF0o41O3LbrT7ttQ0eQp0B7PQAgaiYgRCA5Rm8M5qk0WcKz5DMy7S0NJVoFI1SQQOJADYSkXDKvjgXueO1FR5CnQHYP2xnS7EpXV0oy2JR90xA+uC9UTJOh+N+/fppGfmppFptgYdQTgBbCAlEZgBqEJsIG8vKFLBAghyGO42+UIlEwIm8oyohEks7tR0eQlUASC1iUxyoNchCeRZNZ3mgta22rjzwEMoDl8KRUJ7ApgcuhYdQHrgUHkJ54FJ4COWBS+EhlAcuhYdQHrgUHkJ54FJ4COWBS+EhlAcuhYdQHrgUHkJVE+wbnLkCZJVykNdVnfCs5bkZx46xmVGWrN+ZLks37JYtew/LwSN5kl9oax0U7OcrMRGB0ql5gnRtmSAtGkaXdrsrC2RC5BUU62aNKzenymJzzs17D+m2cGQ3UAIWHRogzetHStdW9aV9s3iJjwwWH+/fL2DnFxTJ7FU75OjxEzKwa9MKLXJ7FoerEEeNFBo/Z718PXud7N6fIeHB/tIgJlwbkJ0wg2+4oVLl4OEc2Wn+HujrLee2biDD+7aXtk3KbpcIKScs2GiItEf3tWHTyvjoEPH19TFksp3zSHa+7DLny8wukAZRIdKrY2MZ2ru1xJuf7c+5/3CWjHj2O93CZPyzN4l/Bfo5VJhQVvYiqO1JY67CzGVb5cF3poqvkRrDL2ovl/ZqJeFB/pqHbu05w2ZFkGrFln3y/sQlsj01U5o3jJQX/jTQkM/WitrCwjU75clPZsi+Q7nSLjFabrmks0o0usXQ5QWuQKii4mI5kJknc430efuHxYJiZWfQJ0f2K63GARDqtue+Uwk1/pkbXU8oUlrZCJEsRXvSWF1rASKXHaB69eql20uQVHY25wOdChlZefK3NybLxpR0Lau6/bKu2nTsdNhg1OLfx06RfUZijRjcWW4f3EVVFcURMww5Hxo7VQL8vOS6C9vJn67sflKBxKmwPfWwPPvpTFmwca90bRojL9x9SekO8u4g1ElGOUYi5dIkj1122WW6bx0Hm0BbB3nS1JdNmjRJbr/99tLNd6oa9HKiogSC10SwBSy2U4C/r3RtkXBGMoGWjaJliFFNhUePq33EPsjc3zZjI70/eam2abz6/DZyy6BOTpEJsPvVfdf1lq7N43UzyrHjfzU22JlTmiuKMr080lrZs44yIseD+jU2h2a/OtQg+6OwEU9VAiKxRwtFmdVBZmeAkcwGkOwjHBnq3L522Dc92jbSn3cfyDIDf1Ttm2lLtqik6ZAUIyMv7SohRm2WBy0bRsnIwZ3UYJ+zOkVWbd2n29O6A6cMG1DgiCpzPEjGJ/WVrfLZL5h+R/PmzTvJxnI3mLVsLkR5d02VUAweu1nh5eXh0TmJhHqh8vdhPeWmfskS7O+tHt3khZu0gPSB4b21d1V5wVj2Tm4ifZIbGVWcL7NX7tCNs92BSsWh2ICHuAd1aM5UhrgSNb0AIDoiSCKNJMnJL5IlxiNjlytnEBLgKzcYm+v6AR0lLDhANqUckF1GWiU3iVEDvDK48eKORvXWldXb0iQr77cNLF2JShHKfgMe+wE2hr7uBsU28FSMrF+/XrcQO5UUQ21RZUItHPvkUWlClQkNwKy+l4D34SDwXn5G9fE7pd72hOZnbEH6PSE9qZuj/xOfsb7LcjT43b6/JiXkvJ/P0TXFHhR0st0aZVarV68+7UTCne/TIVHV3pczVstHk5dISlqG8ejKF3hcsz3NiGSRpvUjxcdJu+lUoKNMw6gQte0OHskvedW1qLB7hqqBNHiDeH38z+AwiNg37P5kgdfZFJEdN2kWQRGkRUBIxnvpK4AKA/yNz6Beb775Zt2smfIkSPmvf/1Lv5eBxSuFrKjiv/zlL+p5Uur0zjvvaB8BSMO5uFaaYbAV/+DBg3VLWDY9ZBdPKlnYuYrroqATG9Eql3r++efljjvuUCL9/PPP8tZbbymRrN7mlFGxISTOiWMNHrbTCGPvrDLSYPm2/fLWD0vls2mrpJsxjjsZI725McCbNYhSz4rNiqwtbO0nJs8mNT1T/xZV4plVBsS/osMDZeu+TNl3KMuQ/rcQgqtQJqHsb6osMNgMKoOGlGJPXD5DbyUGib1y2X6Vmn5IQb3/4sWLdffK2bNn60DRFhDQiOuxxx7T/YVffvllJSe9BJAi1h7DDNh///tfdVEZwIMHDyppIOnll1+uA0zjMKThww8/rL3Hn3jiCS0Dx96DWBDwu+++U6mDBLL2qENlL1y4UN+HxLn66qtVlVP9yzlpA00pOdd/1113yeuvv67tDJFMXB8TgZ4FOCrsVG7fWYXtYF+79zKZtXybzF+7S7buOSQLN6XKz6tSVDVEhfpLYmy4JMWbIyFKo9uJceHaNRgUm+d8MLtAd3WICC6/7eQICB/o563nLSqnpHQWZRKKh4i6QqU4AnXG9u+ECyAVnh975/JwR40apQPO7phU0doTE5LhPdKQAg8SgnCD7GXH55EwSAjrMxRLWu0K2RyRzaaJew0YMEAH85tvvlGpwyAioSDKU089pd3oGFwkBq9boBiT11566SWVOPbgfUg67oXz2cdWeD8qjpY8lKPbnxNi0awMwvGdSL3OnTufdN+Qim54fTolyYHMXEk1kmFX2hH9f+su7KMjatPUNVIIIsVEBMsl3ZrJwO7NxcenrnbCsztdpeFM+KIy+J0NxQxDBaE+aBTheNBMAkKwVTyzFXXEjgTff/+9biyINIEIjlKOgWBbVtQLNhIdcRHpqBwkHlLJ8TMQjgG78cYbT2l/AVQaqoj+AhCWKl77gbdA/AzCMCnswefZ+JqNpe3JBPEgPC142Nbe8ZxcL+p7zJgx+rdp06bpvTgClQaxkhIipXf7xnLDxR3koeHnyxv3XyHvPDRU3n3oShlsCJSVVyirtqTKS1/Ok4+nLJMT5lT+hlT0ocrOc43Tg8fJU4as7sDvCIVxihqhrv9UBwYzRqvVqYQHT4dbBp/I+ekAKSEKBGDwGESMceJanIMuJunp6Uo0JCTkRAIMHz685Ay/B9dMLAx1SUOL0wF1ZrXnsQeEsnptWrCcCVQnDcNQ3WUdqE22+GeSlCXVTwXsLAzljsauemxEP5n07E0yYlAnM+AnZNz0NcbDS5fG8ZEaM8rMrbxXlltQpFF4P2JjwYGnnaQVRZleHuqKTv+nOlBR9h4eD5uDRhH2hmlZwHZht3LL67vlllvUNsGuwZbi9xEjRqikwx6jc66jt+UIpAKeGirzTN3hsK+wl+zBNdMQzFEC4fHhHeJkjBw5UqVrWQfXTysfroF7Yqv+Ndv2yaI1KWr8OgtU3ojBXaRri/qSk18sv27YIx2aJ8hRQ6jNRj0WVTI1Je1QjlG12RIbEaTGuTtQJqHKCwYUteFMLg6Dh6FuqQY8JfYBHjt2rLz55pvy3HPP6ebOtMDBdsHrwgNDop0JDCjXcTpgfyH97IHqgohlqWnIh6c5evRoJXxZB9vz060FDxSpm59fJK+PXyy3vTJBZizeUnI25xAc4Gu8wHjdvCgl9ZC0MN5gfESgsbP2SYqxvSqDqYs2SEZOobRtHKMLyu6ASwjFQ0fdYMOcSeSjzjDm4+PjlVR4bEg3iIWRjb2CdGLXcHpdYrzjpTGgjsa0BWw4PD7iVtYG0WUBsm3duvV3NtSpgLpFDeIgoCrpalfWgapnAnDgcfr4eEmEcdF9DUFT0o+oxCoPvM2kw0iH4P7mXAO6NDU2VLG88dU8Wx5VOcF970rLlC9nrdONkbq3bSAB/u7ZmtYlhEL9oQqxIZAqpwIEmjJlis58PC7iPcR5WGi2JJY9kGTYJhjEEAU1WRY4H14k6hQ33mr85QgIOX78+DK/qyzJBkkbNGig4Qj7AKsjyM7AS7XOzf4uTWLDxcfrHFm+eZ+kHnBe7YE0oyaLjh2XesbjYwln4LnNJSYySOav3yPfz1lfblJl5RTIf6ctV1ImJ8VJ73aJel53wCVnZSaxrsdMxbi2triwB7YFdgaxKzIW2rZtq1KN9zIQpyIB0gupZu1sbg97FYcHhy2DzfXqq69qTMkyOhlkzo9KJeSBxHFEWYRiohAfI2SBM1IWkJ5IUyYH3iUSikBkj7YNVX3tNeSYtGCj0yTYnZ4pM1ZsFz+vumo/8WzbNImV4Re2M/dxQt6fvEQmm/OxaOwMyLX6fNoK+WHBJmmWEC73DO0uocHlW1wuD+oa/f9Eyc8aTKQNMgG9/v37l7zqHFBZDCoGLIOGGuJhMJCoOOJWDDQBTWI2SBMIgs1BTAli8Rok4DqQRiyffPzxx7ocQ56W1UEXOwyPkCAp6paIOeeijyUkIKhKkJXYGNIFd54oNyQj1sTnULnEtJA82G9IQkIljsD7w/OENKhzrpf/MdbxAjkvwVlaHxKDswz7iNAAXdhdvClVDWrSbRPqhZXGlaAv3hsH5MjJLTTvOyivjJsrm/dmyPnJjeRaQyK2q4WgLRPrSaDxzhZu2CuL1++WzKw8NeJ9DfF4ztb5OBdJe2Rzrt6aJq9/OU++n79RJcdjIy6SDs2MfVYS6c/NL5Qf5m0wz/yEXGzUKuuO2XmFTh1Z5np9vOqY53GyE3RSgh2DyGATBCT2UxEsWbJESUlkGnLozZobhSy0CiQkYb9xDu/BVkLt4YIDbtj6LDYMnyEvy96DxCukST2SAVIR/MS9Rxrx3Qw23iFGOOfAA+W+ILoVY+Ne+TuBWJZkiFGVBSYF2Q3E55CKXAefgzyoRfLEiLE5epis242btlK+nbNWdh3IlvrRwdLaGNmJMeESaKQX9lHR0eM6sBtSDsj6XemGKAXSu30jufPybroYbGV2Au5t6q+b5euZa2XJ5lSJCguQDkmx0qx+lG5DyztzC49KZnaebDDkXLMjTVNgYkL91Rhv16Se3HpJZ+lZovI0Bfi57+RQZp5RqeVb2sk3pH3utr7Ss6NtxcPCSYTigpmxPDAefEUAeTgHqoqHzu+cj5nNwc8QxR58r/V+Zj+/QyoGjEHic9asssB7rPcDvodYFO4/xjR/5+B1PmuREVsMYhOewEPjb3w334XNdipwLox53mt9J9dGTKssD9EC0mKfcdXnr94pc1btlO37DkuekQTFxkYyGkwJg3yJiwiR5KaxMqh7C2ltpBFGc1nb/XMdOUZCLN60V2Yt3arFD+lH8qTQfA9iCmOez9ULDZRWidFysbG/Ghl77tMpy2TCgs0SEeInd1zaVS7v1cqMU5F8MHGJBlR5Ts6A+4SMReb7bhzYWZKbNyj5iw21pkgBwxgJgx1H0/qygpeENVjPY3EYVYXkq0pgR2Xm5BuVUWRU0wnJNj+j0vz9vDUJD5urPMbyUUPKQ0dyjfQpkKzs3zzXECOtYsICtXrGyuxETb1mvMRJRsIlG5tszO39pV545ReHmez2qDWEQmo888wz6uWhyrBnULMWkCxE91nvQ+USN3I08ms7aNg/xxj89Y0th5q0V6cVRa0lFMBQhkzYZKgysiAw0lHBrB8iobCdCKRibJ+NwGhHybqCTKBWEwpAGgKseIYY7HiMgDVGYmUY5o4PwYOKo9YTyoOqhSOhXBLY9MADCx5CeeBSeAjlgUvhIZQHLoWHUB64FB5CeVBhlLXc5CGUBxWGh1AeuBS/J5TI/wNgoG91ozrz5wAAAABJRU5ErkJggg==;" vertex="1" parent="1">
          <mxGeometry x="383" y="475.41" width="69" height="74.59" as="geometry" />
        </mxCell>
        <mxCell id="j9wAFBM-4F8-QUCNC5Rh-10" value="" style="shape=image;verticalLabelPosition=bottom;labelBackgroundColor=default;verticalAlign=top;aspect=fixed;imageAspect=0;image=data:image/png,iVBORw0KGgoAAAANSUhEUgAAAMYAAACpCAYAAABwOULSAAAAAXNSR0IArs4c6QAAAARnQU1BAACxjwv8YQUAAAAJcEhZcwAADsMAAA7DAcdvqGQAAEebSURBVHhe7V0HeFRl1n4zmZlMyqT3QEIPvYgFFUFFRRR17bJrXXtZ9ddVsWHvirpr2RVX115XRREbRUVFqkivgfTeJjPJtMz85/2SG4cwaRAgyn157pNh5vZ72nvO+b4b4hegGV6vF42NjQj4SoeOPzxCQkJgNBoRGhra/A1gaP4Ln8+nFENXCh0HGijzHo9HOQUNSjGoFPxBh44DGXQM1AVCKYYePunQ0eQ5NK/R4jF06NDxmy4YdG+hQ8dv0LyGUgwdOnT8BnoNg+4tdOjYGUoxmj/r0KEjALrH0KGjFagTusfQoSMIdMXQoSMIdMX4nUIPgfcuQhoaGvQ7/DsBWxY8sni9PhgMIYiMCG/+RUd3Q1eMHg6mDl1uN5wuN1xOF5xuNrs1KUZWrzT5qzv9vQFdMXogGCaxqbPOXg97fQPcVAZfIyLDIxBtjUBUZAS2bs9HZkYKwsN1r7E3oCtGDwK9Q4PTiaqaOtjqHGiUsMlsNosyRCI2OlIpAccOEDm5hYiKsCA5KUH9X0f3QleMHgB6iLo6O4rLq1Brq1PCb42KREJcDKLlr9lsalEIDcUl5ai1OzB4QJ/mb3R0J3TF2M+osdlQWFSB8spqGE2hiI+NQUpSPKwSLlEh2kJNrQ05eYUYIoqhh1PdD10x9hPKK6qxZUc+qiVsMoQa0K93OtKSE0TILTCZjM1rtQ2XkPHN23IRFxuNXukpzd/q6C7oKY19DJvNjqWr1mHB4hXIzS9GncOBJAmZYoRDMFpitqkz4PjkyMhw8Th1+ujLvQDdY+wjsAaxYcsObNi6AzZ7PWKtUQgVJcgekKXIdoWEUj6fX3kLCnyMcIuY6CjhGBGqXkFPEpiaJVGvrK5BbkExMjPSkJwY3/yLju6Arhj7AI76BixfvREbt+bCJ0R7+KA+GDVsEMqEbK9atxlTjhkHo9GE+oYGVFTZUFlVgxoh4/QEJN0GQygiwsMQFmZGjDVS8ZAYa4TsOUSFUyazGdn9M3ea5ULHnkFXjL2M+gYnFq9YizUbtylvMEYUYsywgcoDEKvWbMLm7XlKOaxWq/pOg9vtRoNsX1vnELJth10Ux+l0N/8KhFvMCA8LUyS9V1oyosXD6Oge6IqxF8FwZ9uS5fhh4U+o790Hg/tk4JDRQ1VdIhA/LFklYVEtjjh4OBLi4zqsZjMsc7lcSunKK2thr68X4p6EjLQkvRLeTdDv4l4EhTTe50XGlvWIXL0CKSGNsMj/feIJApsADx49RPGKZb9uUlyjveHGVDaPtxF2RwPKKmuUF2JoZXfUo87uaF5Lx54i9K677rq3+bOOvYCwpESYbTXwvvs2PCtXwFlaCl9tDXxi8RubJ/kyGUW4Y6woKK1EdW0dIiXMskiIFGj9qUhM0VaJZyHhrpL1SLjZL0USX1VtQ6jsJzJiZ5KuY/egh1L7AF4JdYr/9xFyHn8C9RVlsPYfAHPv3ghLTERoQgJiszJhkf9X+oCc0ipEijINGjwQycIbQkwm5SHqxCOUllWqDFZMTCQy01MQE93ESRqcLhQWlwlZ9yI9NVFCtahdKuU6ugZdMfYRGoU453/4Eco+/hgRvTIQNXwYGouKULdlC9wlJQg1m2EWy18j5LoxNh4xoixpI4bCkpaGWoMJBfYGRIgSJWSkIUUUJizyN55Cb1JdY0NRSYVK8aYkx8MsCqVj96Erxj4EPUfl3Lko/EiUo28f9Ln0UnhFgN15eWjYvBnVsz+BX0IspmcbbbXwc34jsfw+owlOczjiBw+AtU8WIlJS4E9KhpkeJzYWhtg4NMp+SsWb1Ls9SE9OhFUIvu41dh+6YuxjUDkqvv4aBf/+N6L690e/O++EWbyC125HweuvA8I/4iefCG95OVyiMN78PDQWFsJTUACn3YYQpxNhDU74o2MQlhCHsOQEGOLiEZqUApd8Zw+LgFU8UmzfvipMM4pn8Ys30mscXYOuGPsBDKsq5s3DjkcegXXoUAy4/34Yk5NR/c03qPl8DrIeeBChMTGKoPtlXW9tLbxVlXBX1wDlwiV25MJTUgznr7/AuGNL07owwC+hmD88QniJBSareJKkWESI8jUmpcKYkYHQtHSY6GWSkhBiCddJejvQFWM/oVGEvnrRImwRjxHVpw8GPfec8hKFs15CgniMhBNPbF7zN6gUr9cjCuOG47tvYfvwPYRm9eEcSOBDNEuI5dmxHd7cPBgKC+CuLAN8XvEYYTCwA9drhCEiHKYsUZABA+HrOwDmgYMQ3rcfjEL4Q0zmpgPp0BVjf4L1jJqff8b6665D/KRJ6H/nHSh/+WW4ikvQ74knECIhUGs4hajbXn0Z7rlfIubee2AeOhwO8TK+7TsQN326cBQJs5ziaepscImi+cSz1G/dAuPWzbCv3wSUFopWumGwWuGPiEKjxwdfiAlh2aIgB49F2MhRMA0dhvBevZqPeGBCV4z9DJ/Xi+rvv8e2iy9GxkMPIcxiQcVrryHrqacQnp3dvFYTbAvmo/iGGxE1NBuJd98D06Bslc51zJ4Nx8cfIf7Rx2ASvkL4fT61QAg8FTDEI57G2YDG0hLhLvloWLcGDb+ugkF4jMHVgDoqiN+HUHsDQkLFswwZBMuJJyNp4gSEiUcxRB1Y7SZ6gW8/I0TifIvE/xEDBqD0mWcQMXoUHLU2+IUsR48apdbxCeGueHYmSu+4E3F/OhUpM5+FMT0DBqNRZZ4ahbi7crbCKFbe1Gzp+T33HSLrGFgslFDKEGWFMSUVYQMHwjJilHikMHjWrESICL1PPpsiI9BYUITGqip4G2Sfy5ag+t8vo+jNN9CQnw9TXCyMQvCDebI/GnSP0UPQWFeHoqefguPHHxCaLgIuApj56KPCEypQdM8MNMz9AikP3I/4Cy+GoZVgurfnoO65Z2AZORoRF14SNE3bxE+88FZXwT77E9SJVzJERiHmttsQKgpR99UXiJ12vkoC2Jctg2v5UpR88CFCC4vgi7HC1eCEp7wSpszeSJo2DQmnnAqLKLMhQsh+s4L+kaB7jB4CWnVjcgoqf/gRthUrYRYrbkpKQtkTj8H53SKkPvgg4qf9BQYJtVqjUUIlx7yFQkBcsBx5pBLUQKj2k/Iy1EnIVXH7bXAvWYaov/wZ8RKOWYYNh23+PPjtDkQcfKhSDEu//ogcPwHJl12OiMmT4bbGoLGmFkZ6oDAzKhZ+i/L33kXViuUIEYULjYtr8l5/IAXRPUYPQmN9Pareew/5992LkNQUVXswCS9Iuf4GxJ5zXlNmKQi8EvpUP/yweAUf4u6eAVNsrPreR15RWYn6RQtR9/JL8BWWwjr1ZJgvuAgRohAElapmxl3wS5gUc+kVKp0bDAzX6lavRtlXX8Exfz484uHcDQ1wl5bCKGS97zlnIXbScTBnZsEcbVVh3O8ZusfoQTAIkTZERsJTkA/3ho0IcdbDOnIUoo4c35RKNTTzBiHHgfBxnMaiRYDDgXDxGCTKVBanhEP1LzyDhjdfFoGPg/XOexF18aUwp6c3bwl48nJR9847CBs1GuEHjVVkPhgYvrGfK/6oo1Qq2dS/v6rMsxEyxGZDyZy5qPrpJ9TX2RBGHiIhllG84O8VumL0MIQyZq+pQcPSJapi7SopgXPxYtSLkDdu3wpXUTF84llYB1Ghi3gVtpEoxRDrH3booXCLsNtemwXnKy+Lpa9B2F8uR/QtdyJ8zEE7hVnMWtUvnI/6X5Yh8uSpMPcf0GEoRMUMjY5Whcm4iRMROXoMQsMscIlyuEvLUL/4J5T/8qtwo0pVdTfFxCiF/71BV4weBs1iO9ethUfifouQXcbxjXk74Pnxe9hXrIBn7Wq41qyGLz8PPon9feIp3CuXwVtZjhCvGw3vvgHv8iUIFTIefsV1iD79jJbwKhCNVZWwv/8BfAhRimFKCB5GBYJegh7KIyFUvZB+T1GReCo7PBLymSxhoqRueEWxqxcuhH37dvi9HpiEt1BJfk/hlc4xeiDcZWUof+wxuDZuQPwllwjhDkNjzja4tmyEMzcf5rISuArzYYhLgEliekNCAhpLigHhAWzz8EdHIeK0sxB+3GSYs7KUV2kNZqnqv1uI6vvuQfiUkxFz1TUwiicIBhUy1daiIS9PlGE7Gtatg3OHCL14H68lHBbxCubswbCvXAH72rVInDQJhXO/QMOWLTAKMU+aOhW9zj0HseJlWmfUeip0j9EDQa/RsH493Js3Ie6ss1SGyDR8JMxjDoZZSHP4kKEISUmFj124FRXwFeSJi3EilGGQxw1j9lCYjzkOYcIDQiyWoOFRo1j1+g8/QMPqXxF13jRYuM8Ai84BVEztNqxfh7r581D57tuo+OwzOMRToaEe5rR0xAnfiBMlSJw8GZbIcBQ89xx6XXU10qedh6iBA2GQEKtmw3rYVq1CfV4hEB6uWu7ZYt/ToXuMHgqmQ6tfnoX06bcjatJxzd82wS9cghbctXUz6l7/LzyLf4RRFMAvSkElMImV9plCYB46Cjj6eEQdNQFGseqBILeo+PvNokRDkPDwIwjr0zTVp89eh3qx+s5VK2H7bC4aRDkklgN6ZSL+iCMQOWIEzH36quwVEwX0Ri7hE5uvuxa1hUU4/PPPEcp2E1Espyht8TfzkP/2u6jfsAEhCXHoe+216HvWmTC3mvihp0H3GD0UfhFIEtkwCT8sg4fsZPWbQiMJhT6fC9cns2EKExJuCoOpd280wiAkuAQG4R3+klI4hJdA+IczLBxhvXop8u2pKEedKJ575UpYp01DxLjDVdhTN2c2yh95DDVvvwPHvPkwx1gROWUK4sWjJJx1NmLGj4dFPIFJQjfWXehh6Fm2Pfc8yt56C0MffxxRojjqHOU3U1SUaq2PHTlCZa8qli5F+eLFMInniB02rEeHVbrH6KFwrF6N4ttuRfzZ5yDuwgt3yiYxK2V78jHY3nwblpEiYP36wLdsMSKvvhEhgwbDMf8bRcDhkJAn3IJQkxn1fh8iRx+MyEuvQGNlBSqni7fo218E/2ThL8IbvvsejqJiOCWaij/+OFhPPBkRY8cKj4lT1e22Mkusa2y84UZEHH44Dnrh+aC1FnoPepVtH3yAjU88KXGaF8OnT8eAyy/vsWGVrhg9FA2bNqLk1lsRM/UUxAkB1xSj0WZD+a03wzn3S4SfeQZirrwKzvffQuOGNbDe9RBM4l18wgEaCwtQ98nHcL/6HNyGcBgjImEyGuCUMMwQGa1qJL4QA3weF3wllYBwFus5ZyNiylQJlYTQR0Z1aNEr16zF1htvgCs/H2M+/hhW8QLtwSNeLPfTz7D6zjtUMXPk3TOQfe01zb/2LOgjVXooWNBrPT6iobAQ1RdNQ/1rbyJmxt1IefpZMMCq/3kxQlJTEdKrtwqzQqOsMJM73HYHkn9ag6iLL1NC6ZXHbTRbYCAXCTUiVMIdQ/9sxDz/Inp//wMS77gbEWPGwBgX36FS0AMUPf4YHMuXI1usf+SgQc2/tA2TcJIBQsyniJcxiRdaIRxny3vvNf/as6ArRg9FKOeqZeVYuIUqxK1ZjZpLL0TdT8uR8PFHiLvsCiHbHgmDtsKwfaMQ7dGqmBYIpmRp+aOvvBphp5ym2jj4XcvC3ySUip08WRHmzoLtIXnPPIPK+fORfOaZiD/jjC4V8cKFp0z+4QfEH3IEfvnb31Dy/SJ1Pj0JumL0UHD4q9/rValbFvsqbrpeFfySP/4fYk6c0rROnU28xY8qY+Q/6FD1HUEha6SHyMtFzb+eR/WUSXB//hmMQoZVTULW4cRtqK2FY9aLqBFu4C0ubhq/0QE4tqPqo//BLqFTVL9+yLz22jbrH+0hPD0dx8/+ANZBQ7HkssvgLC5p/qVnQFeMHgqmZEOTE+DO3Y7q++6EJywc8f+ahYhxRzT9LkLM6Xfci75DWP+BiBwyWH3PqrR3h2zz+n9RfvE01D7/NBq8sq/oWFWF9oknir3pVoQfP0UUqCnTZX/zv6ie9S851g6lOG2BHsouYVvJrFngDLqZt92GyOHDd7uiHSoh27HvvYnY/oPw68OPqnCvp0BXjB4KP/ulduxA7aefwNinP3o/+09EDh3WIoScJMG54BuENthgPuUceZIGuLZugf2Dt1F76/VofP5xhPq9CD/jPFivvQkevw9eUYSI089G9LnTEDf9dsTNmAEjU8EWCyrfegMlM5+Ca9u2oJ6D3ou1iOLnX4CnrAy9broJsUcfjdAuNgpyPyTenC3FWVUNr3CdodP/Dvumzch5732lfD0Belaqh8L2yUcouv9e1fKRKkIccchhO7V2uDZvRs2N18GUnoSIW2bAvWEdGj79CI0rl6gReeHjj4XxhCkwDhoM25OPwPHxhwif+ifEz7hfTZpAUAidGzfA9vorwhcWoLG6GrFnT0PKzTe3rEMwNOMIvsKnZ8KxYCFSr7gCidOmwRgf/J0cir+Ix+M4EHoBt82mwkAvx6GXVcBZVgIzC4Nil72GEFFgP+wFhQiTyxt+y609Yhitrhg9EIzjK/71IkpnPgljZiYSjz8eUVNPhWX4CMU5iNoXX0DNP55B9PnnC0k3oW72R4DbhfBDx8F07GSETxBrHhEOu3iCqkfuhXHEGCQ89DjCm8dhBMIlXKT6nbdRN3cOGiTWT7v6GiQIYWf9gvAIFyl67TVUvv02Us46C8mXXKKKfITiKkwCCCFnNd5ZVQU3vZ0oEj2eSz67amrhaZTQTxUpDTCJAkQnJ8m1ZcEoCmhNS1WKGMlmQ3YXd4HI7y3oitEDoTURUlhNcVZEsEiX1R/WK65U7SGcU6rir+erUXUhcbEIra1Rg4XMx01B+JHjYcrIQIjRhIaF82G/73Y0OD2Ie/hJWI+d1HyEXeGtrEDdN1+j5LX/wrAjF6kP3I+Ys85tmslk7ufIf2kWYo87Dml//nPLeA/OQmIvKIAnNxeunBylFPXynZ9KIiGSWxQhqlcGItPSYOnTV83XGy6flSKQsJvNTZm3HghdMXogOPai4vnnERIbh9C6GjSu+VU4hw2GDBGqK6+FR4Sw7j8vqmGuxmEjEXW8eIhjJsHYO7Ol/uBkp+vDd6vWdNP1tyL2nGkdWmJmwup+/hnV4qko7BmvvAqIguVyXHh2NqKPPQbuQiH87K4tLERDTTWcFZVqBpLG8EiY+/VFWO9eSJJ1LX36IIQKkZiEsJjoJk9g/P0MfdUVo4eBA5Aq33oL9oULkHrrbSJMoaj7+it4Pv0Y/spy+OIT1bxRFmsEwk6W8Oq4yTCJQgTWIehRqu69E67vFiDm+r8j8s8X7NJE2BbIO6iYOf93M0xpKaoo51i1CiEJiaI4TuUlGtnJm5ioundDB2UjbugQmPv2gyUpEQY5TrhwDyposHb33wt0xehh4By1ZY8+Ar+EIumPP66mqvEKKS5/8jF4vpoLihozOokz/4nww49QkzoHgu0gjv+8BPuLMxF2/mWwXnoVjJySswNL7XPY0bBtm3iDtaidLyGYeAV/vUOFUqyUN4aEwpeWAcvYsYgaNRoxgwbCJDwhJDpGNQvSe/2RpvzUFaMHgTWEui++QOUzM5F4402wTp2q6hJ1H76P2v++AoNNwioW/mS96L9PR/yllzdv2QQSYdv776Lh2cdgOvo4RF9zYxPfaENgOdKuXhTA9eMiOOYvgKugED6TAV57HVx8W1NGOqzjj4L18MPVXFTGtHTVbsLpdpim/T17hI6gK0YPAt+TUfj4Y2gsLUPfF19Qg4lKpt8Oz7LFCIuNVgJunnoaHG+/oQYrJb76BkJjfvMYJNvV99wD0+jRiJ1+hwhy2k6eQhUFxfuwt8oxZzZcCxfCVe+EJ0y4R0W1mn4nfPRI+KecjBQh2pZ+/dSE0aqBUZRgdwt5v0foitFDoLzFl1+idMbdSH3oITW/U/Ett6BRQqnIMaPhfuttxD/7rHiRU1B7x22oefcDxL/5BqInTFTbO9asEV5xDywS3sTecafiHRp8djtq532jahnu9z8C+Dqy5Hi4ax1wCaewHDUesVNPRfTEiU1DYYVwH+jQFaMHgAUxT1UVtt95B8JNoYgYPwGlM2ciVjhExISjUPXP5xB9+p8kdLpMwphI1Ofno1TCm+jbb0P8NdfBW1aGGuEjjRICxd42HWESAjVW18CxYjns33wJ9ycfCqv3Ch+Ig79BeEOIKMb4IxAl3idc9hPJcOt3ki3aV9AVoweABLf6009RePddiD/maLgKC5B49jkwZQ9B+SMPI1TCppRb/g5TbFzzFkDRDdepl1EmzLgPtjfegEc8RvSNN8InPMQt3sH+2SfwFheqlG8I354REYWwSSfCcuyxCBs1BoboaDiZXZIQyfIHI87dAV0xegAYBm296koYXE7EjBiFuGuvgcHnFxL+tBqLHX/tdYpEB6L6vXdRLzzBOuUkON56HcYRo+HbzqzSajT6GhGakITQ1HSYDjkUkeOOQBjnf4r+LWXrFD5RX18PoyhXJMn0H5hI7w50xdjPYAU596671FDWpAsuQPxJJ6l38lW99hrCkpIQf+WVMGf+xhdUE57Nhrr5whmeehz+KCsaC3bAYAkHrFY1IbRh6HBEHnEkIkaNRmhiUlDS/JtiSOgWEaEURMdv0BVjP4LT+xe88Dxq53yO9BkzEHvQQXAsX4byN99U77lIufoaNYEBwdoFh6uyedCz+hc4vlsI347tMCSlwJgYj5CBQ2EWThI+ciT8ogycWofCbjabVJjUmkO4XE2KwRdhRvAtSz2gP6knQVeM/QTWHCpmz0bRrJfQ+/Y7EDtmjHoHX+3HHyFswAAkX3opTKlp8FZUwJm7A/XLl8Pz82J4Nq2Dp7oKEYMGqdeEWcYepjiIMykVIeIx+DpjKgEF3+PxKME3mYwIa9WT5BZeU1/foD5TMczNrSQ6mqArxn5CzdKl2P7QQ+hz6V9hnTgRJe9/gPpF38N60FgknHWWeqee85eV8t0PcPy6Cs6crQizxiBy5BCEjhqLSOEOVCBjQiI8snJldY0awx0XG91i/akYVABOcWM0mpT30EImXTHah64Y+wENG9Zj2yOPIHbCRCSOPxLF/3oRXvEgSccdB0NiMuwrlqP+xx/VbISoq0NoVhZiJ01C1LhxMPfvr2YrV5yiGRTyisoaGMUzxItiBPIFeiYvXxgjCz83hVdmpSzy7OX7RkW+W3uUAx26Yuxj1G7LQfk/nkFYaioMWX1Q88orMI4YgaRxh6F+0ybYvv8evspyeOvssIj38B1+OAwDs5F58MGqSY9EujVfIJEuF8UIt5iVxwiWYaJSqGk3Sd7lL9ehR6FikHxbLLpiBEJXjH0IT3k5Ns24B/66WlhiY+EUz2FITUd4agocEjJ5ykoRKgIaeuR4GMdPQPzYsfDGxKCq3o2MtCThD9ag9YYGpRjViBLLHxdjbbNYp0bWyULFoFK4XG71f10xdoWuGPsIrGzn3H8/yr78Us0zK6ZaCaV6xVhpKcwRYYicdj4iJh6NUrNFze2U1ae3hD6hyC8sVRa/v/yfRLo1HMIVSssqlbfg0hHoNZiRorcgdMXYFXq5cx/AY7Nhx8yZKP30U4iko5HhDH/Iy4PZbkPGXXdi8LeL0Hv6dHgGDUat0YJwa5TyABZRHGtUJGx2B6qEYFNBAqHaSTj7h9D1jop0XJcKwYUEXa9dtA1dMfYyvHY7cp95BoXCJdTs4BLmuIuKVBvIoOefw8j1G9UYa3NGBlwi82VVNaII4YgRxeC6XJL5mjDZtri0Ugizs3nPTWBY5HK6EWoIgTG07cfJ0KlaFMvt9gjZjmzOXOnBQlvQFWMvgdbZXV6B3CefRP6LL6oZNRhOMYwa+thjOGzpUiRccGGL1aaAV1RWwe5oQEQ4FSNSfU/QE2SkJqiwant+kcpCaWhs9KFBuIJJ9hMYZvH4Pp+cg6xbVVWNqhobwjmnVGyM3v7RCeiKsRfAcQ8NZWXY9PRMbPrnP9FoMsPHuWin/QWZr7+hindhQr41kkwhdopw5xeXwyyWnEW61pXo6OhopKUkyr79yC0oUTyB2zXKsegFKOxc1HeiZPyutrYWxcI9eJyEuBhRjF1nIieZN4i30bEzdMXoZlAp6rZvx6YnnkTRq68iacwYxF14EepvuxuuqWfAlJy6S2aJwl1YXKYE2hoRjviY4PPIJsTHIjEhTqVnqRz8y8wSvQYVivuxO+pV6ra0vBLeRj+SE2KVl2jNJ8hV6FF0BIeelepm1K5fj83PPY+6FSuQesIJSDv3XNijY7F2Wy6EMWDsyCFIEmENRHWtDWs2bFMK07d3GjLSkpt/CY4S8QIk4vQqJgmv6htciFVpWqjPDKuirRGKtLcVNumV7/ahe4xuArteS39ajG2vv4lQtwvZDz2IwbdPR9zwYXCL6XG7gk89yZAoN69YpU6tERZVue4IqckJsp5VEXGHLH75V1tnV+GYNSpCkXXWPDriEgy7qExaSKfjN+iK0Q1g5qnom3ko+uEHRI8cgRFPPYUMtndENM3kJxKo/jDUoTAGgiFPaWW1+pycFK8Icltg+MOaRWV1LTxe304cxRBiUJkscgnWJDoS9qZQqlGtpyvGrtAVYw/BmsD2n36WcKgW/c85GwP+PG2X91SI5Kk/brHobo+nRTlsYuU35xTA4/EiKtKCROEQrUEBpmcoq6jCjvwi5OQVYnteASqrahW3IKyREUq46TW4T+6vI/jkHBoVx9AVIxh0xdgD0Hqv25QDb3QMMqeciOjmN5+2htlkRKhwAY+ETSTHDJtItHNyC9U+yC0yM1J3ykQxq1QhnoTpWSpDflGJyjCRcFujohAf1xRyGSVcShJCnpocD0uYGTW1dSirrEKdeLHWxUANVExmt5o82c4eTEcTdMXYTdAyr1y7WWV7MkcMg7Wdl6ewYEerTgvNjJHT5VIegIJOBUlNjlPegnyDpDontwCbtu7A1h0FKCwqVzUIWvVeqUkY2Le3UiIKvafRi3CLRYVfJNqJ8bIfURKznJPN5pAwrUr+2nYJ37gtj0uvQegeY1foWandQL2ENktXrRcB8+PgEdmwWpsq2m2BQrh24zZsEGFnxmj0sEEoKq0QJahVQj24f6Yq0lHZHPVOFSJxf/QkCUKyyT04sTM9AhWRVewNm3eIYngwSBSFNQ4NVAIej16pwekUz1GvSLg1MrxlbDd/tzscEqK5JITj9+2f/4EIXTG6CIYyVIrqmjocdtAwpIjQdkaoSsoqsHz1RrW9MZSTGzd9z5k+WGDzNfMFhlyJEialJiWohsAws1mEuanVXDtOSUkJtheUqczT4AFZu9RFNCjPwEWUhCP6nG6vah0xm0IlVPPCKwpCxYjqAe+j6GnQQ6kugJZ2wxaGOIUY0LcXkjnWupOWVnW+iiBTUH3+37JTDna5igdIiI/B2JGDMfGw0RgzYrCqZUSqsdhUnN/GYDDcolJQmRJlm7aUguBv9FBh4mmi5disn8TGRCtWwfdVcGxHe9sfyNA9RhdQUFyGuQsWo39WOsYfMrLDUW8sopFL5BaWKhLN0CvM/BvBHpDVC317pyJeuEFnweLeNuEgYWaGZNm7VLTbAhWxvqFBwrX65m+gioOse+ij93aFrhidAIWK2aTFK9Yir6hMWfWB/Xo3/9r0exOh9SnhyxfCXFBcirLKavXSFovFhFgJVzjfE8MXDQyXjhQF66xwM1O1cs1G5XUy01PQW0h4W+A5aYtD+ERFdZ3KYKUkxak2kvKqWvFIFlX3aN2XpUNXjE6BIdTWHfn46tul6N+nFyaOG61if5d4BJfE6jW1taIENSgoKoVdyDM9AyvT6SmJKtxiyFNrs+OXNZskfAlRJLhGOIrb61FV6kNHD1NhU3uggG/bUSBKV6aGsB4kpD9YGwcVlMpHJSLxZqjGc2UYxRkH+VtVVQ3qHA2qIMi0rx5O7QpdMToABZKt4IuWrMKmnDwMy+6HIUJ4WS9g6rW8qhpuFuhEsFPEAyQnxCElMUaNitNaMursDiz7dYNKn44V/pDZKwUbNm9HTm4RvOJF6DnGDM9WYU1bnIV9Tb+s3SyK6EGWbM/RfBp4jlRengfJfZ14N3oFpnIT4qyqq1bbLwuMJaWVKlXLZsXoaJ14B4OuGB2AQse2jTnzFythi42OVJZWJE08QbQoAj1CtBpDESwkouXesGU71snC1OrQQf1U6pX8Y/WGrcgvLFNpVyrV8Oz+ahxG6/1Q6FkMLCypULzg4FGDlbdQtQwRdKZ67eId7M1NgVGilHGxUeqcAr0Br4Xjw9nJS67DhADrHzp2ha4YHYBCuT2vEJ/P/1kENhSDhFscOnqwssaMzdvLSjFs4XhtWnqOsThEBDqaStUMCvXmbXmqss0GQIZdfTPTREkSdyLp1TU2lQ3jOvy9t/ALehCGQ/RGrFfQOzF9y8kQGJYFayCkItXU2lBaUa2UmyGe3lUbHHpw2QFoNZwub0v/ESctixSLTIFqTylonRluUaBZmBs1dMBOSkFQsYYM6osRQwYIJ4lR66/fvANbt+fDZqtT+6BnoXJRKbR6Br3HZlknTzgNCT+r3f0yeymF4TGCKQXB/TkbmrwK1+ks6T8QoStGB6DoMzWqDRutFYGtESLdEUjM6Q3Y/jFicD+V/QkGhjqZGWmiHP2RkZqoKtZsCVknClVYUq4q5BXVtSoTRcEuLC5XrSQMk/r0SkPfrAwh+UmIEn7SHonmtty3o8GlZizkNemku23od6YDUHiY1jTyre2CsspaFInAMixpCxTA7XlFyqKzMp2anNiud2Gxjo2Agwf0UR6EcX+5hDubtuZimxB0Nh8aZHuVXZLwZ8jAPmpAE6vu6h3gbXiI1nC5nHDLuTEkpBfT0TZ0xegEGLOniOCSSJOAc1hpVbWt+dedQctca7NhzaZtyOqVin5ZvVq8TXvgdhwfwal1+JlgTxa5BBWN36UmxSFTvAS5CHusumLxuX19g7vJA4pS6NyifejkuxNgGwbDovk/rlDCSCFjI+DBI7N3maiMXOSLBT/BLMJ39LgxHU5kJvdf1UBy8opRx7EUyjsYlFXXvAwVi1yC3zFrlZ6ahJTEuC4JN5MIm3PylGIkiWK1FdrpaIKuGJ0AFYGdr4uWrMYWIb2aBxh/yAgMH9x/JxK7ZOUabMrJxxlTjlYTpgUDhZQ1jU2ibCTctQ4HwoSIR0sIlZmWJGQ6FsXlldiRV6LCpez+WaIk/ia+UVWrioo8h6S4aFX9jhZl6SicstsdQuoLlLfom5WuJnLT0TZ0xegkqBwUzK+/WyLCbFeCyU7YEyceKiFTmvIk7GN6/7MFmHbqsUgM0mDIguCmbbnYUVAMR71LjdXOSE5An96p6CUKERUZpfgGJ1ZbtW6z4jGjxDNlZqSo7fl/FuboWfKFv9TWNdUuqFRpKQmq0t7UeLhriwd5UZkoY5Q1Av0lvGuP8+jQFaPLoGAv/OkXVSjjyDzi5EnjVGbp32/NxviDhmPEsIHqe4I8gWEYBzVRMdiCwcbBAX16qQFHrXkCe7LWbc5RKdnhg/opMt5WWpXKynZyrQpvk20JnhcLjzHRESp7RUX5VY7PdC+VLCam4wkXDnToirEbYM/Sj8tXi0A6lIU3iMBxQBFDp0lHHgyn2y0WukIJeFWNHUnxVIZ08Qxp7YY95DIctcdGwdSkRBw0YpBqE+8KuA/1GrEGl2plYZrXIX+pRKzBZA/I6nQW60CGrhi7CbZV/LxyHUokPCHoQVjE8/t9qKi2IVHILa0zawxUho5AwS2rqMbPK9aq1OxI2VeWKFJnwe0ZarHaziwWlYOK4VaK4lYZNbadkLjr6Bi6YuwB2F6x9NeNSkkohAyL6D3GjR6K/n0ylAfpTEq1KSRyY+mqDcgrKsaI7P6qWbGjyjS3o0dgJqxpAjUn6oTIc18msxnJ8bGIiLCohAELjiOHDNTTtJ2Erhh7CAoks1Abt+5AtZByjqM2h5nQVwj54AGZwiliVOdtewpCS58rhPznlWuRmZ4qhHtgmxktrsusltPlUVV1chKOE6fgk09HRUYiJTEWnEmEx+TkCuwKTlMkf+d3hetoG7pidBPYzMd06DYhzZU1dar9OzIyHBkpCarQxzCGjXusRbQG20wW/rQCYeYwHDpm6C41BioCvUC97JPjOpxOp/rMDBXbO5iJSoijMoSrNKyWcaISMVnAcxs5ZIAaj6Gjc9AVo5vBidDyCktUi3hpRZV64Qs7cdOT49XrwjjFDds6WLnWBPjHZaslhCrBxMPGKA7AEIkkWg1FtTcoZXDIZ19jU+gUGW5W4z20Tlq2dwQj1Kyas7U9Tgg8SbeOzkNXjL0AWmpa6aLSSjWWg01/NTaHmgSB09ikJMYjNSleKQEHHi34cTkOGTlYtY9wkBGn4HTIXw48IhgShVvCFIlnWMb+KBbqOuIvRcJ9tkuIRs6iD0jqGnTF2IuggjBbRa/B6XZKREmYxrXZ65Vgx4uwehRfcGGkkG278BN6C07uTI+iFvE2FuEsDJEC20Q6Aj3Ouo3bVGvKoH5M0Xa+r0pHJxVDSwXyobRnpRgL06Vz/ZqaGjX/0cCBAzvMruwr8LyqqqqwYMECuCROP2HyZCQntz/lfneB94ZKwkq1rU4UhQOGyqpRU1fX1OIhQs+x4tZIixpwxIwS34fBOW21anZXqtXkLeQXbCfxNXpRVlamJmbjfmL5xtjmwU3BXiajoxOKQWEqLi7GvffeixEjRuDyyy8PSuJmzZqF//73v/jss8/UA5gzZw7efvttPPvss0hL63w+fm+CwvDEE0/AJkp78imnqOtJSEhQ1pVCt68KXzQyqtYgYVSjCC2zShzjUSPCTM9ir6+X75vaP2jpI+V+c7wFw6iEuGilOBEWs3oObZ0zs2ScFYS1kHqHA3M+m4NDDztMns+nOOecc7D6118xZOhQ9O3bt3kLHYHolGLk5uZi2rRpsFqtePrppzFs2LDmX5vA3p0JE47Cxo0b1bpJSUlqzlQq1IABA3qMx8jPL8BVV12JRx99FIMGDVLn9cYbb6C6uhoXXnihUhJix44dck116nr7tDFRc3eCikJvwel1qBD0LkwDszbCMIw9UcxKcdZzdt9yXVbcaf2buEcEYuRcmQWLlP+Ty7Afa0Cf3mpsB5/h52Kojhw/Hv/73/+QIl6SkyKMHTtWV4w20OnAk+43NTUV3337rXpwgZj7+RwccsghLc1rtL70GprwBUIN3meGRYShI3AdTrPPbVqDD5segBXe1uD5cS4leoJA8Py4T3owTjJGa1tYWIjKysoWy7t27Vr89NNPWLFiBTZs2IBt27ap7/cmGJ6SP3AgEok1axjxcbGqc3booP4Yd9BwTDh8DE445nCcfNx4HD/xEBx12CiMGMxRf0mwmE0qA1VcUoYN23aoukVi7G+ZL+7f3Hy9WZmZiI2L28W46dgZnVIMChMf2qEi/OtFWPLy8pp/aSpwzXr5ZeWetRCLgvn111/jvPPOUy9IJOg9pt92GzLlwcTHx+PUU09FeXk5vv/uO5w6dSrekbArPT0dTz31lBLqt996C2NGj1ZWnEr24osvwm5vGlJKhbjkkksQJw+YHunNN99U3/P3f//rXxgo3yUmJiqLT49ABVkwfz769euLXyWEoMJOk3O7/fbb8Y9//AP//ve/lbI8//zzSohi5Hg8h1GjRrWc/74EhVkTaIZSVBpOtcnmQPY7Rct1JSbEqzBp8MA+GDF0EEaPyMbBo4fh8LEj1ZLZO11to2Gy8KmYmBjFqyZMmIAhQ4bo3qIddFox6HqHDR+uyCrJK4WfVvuLL77A0MGDkZXVRz1MDdyGAkxQAR577DGVfaE1JgF+8IEHlOAS34jQbsvJwc8//6xCttdffx0fffQRXhQhp2AuWbIE7733nuIt9BCPy75IGmnpKehHHXWUGm/wz3/+Uynk7Nmz1Xbff/+9Enz+nTBxIubNm4/Bcq5ff/UVnn/hBdwmikrOdMEFF6hjMJwiKTeIZR0i623fvl3VC3QceOhSDi8lJQX9+/dX4QYzTrSqjFmPkNiVs+sFgkqihVHr1q1TPToXX3yxslIU6tFjOLqtycPw77XXXqu8CRUuXzzSKUKOjzjiCLXdyJEjcdFFF+GHH35QXoHTxXDfVDAKblZWlnixXMUVzjn3XIyQ9bkdwzt6FioZwwh6JG6XKt6BXovhIY/NECsjI0MparYoRJqEjPHiqWhxmVXTceCh04pB70DXPkYEmu9ToIVdtnSpitUZrwbLjlA5ZDMUFRWpbSmYwTBIhE+zzOQU9Aqt16XrzxNi75bfKOzr169XXujTTz9VCsL0MIW+dXgwVLbLFTJNhfN6PYqvtOYegeB5UGmZsWIWJ9h16fjjo0seg6BVZzxOcvr555/j8HHjlMUOBioFFUojvVpo1R4o3FQitkMEgmFTlFh0hjnkCAytyEFeeeUVfPzxx2o7HoPZpEBUitIwSxYY5nUGukIc2Oi0YtDiEnzJCEMcWujtYonJO9p68UjTW0GhyHCDeIJvv/1WWXf1QkeJ34Nlm0iok4THLBG+wbQpsy1FhYX45JNPcOSRRypvtXnzZqVsfzr9DEwV4k6ekSphHr0Xs2Zcn5kvpo4Z6h07aVKLoFN5AsFQih6K18O/VGQdOjqlGLTGzPLQkhPkGf369VMKws/a90kB6zA+T5Q4nf/vL4px0EEHYcXy5aoQOOull/DF3LlKeI0i4IznNTBzMlGIMsWTBcNZs17Ca6+9hlj5/vjjj1ehznwh6yTar8nvJcXFOPbYYxVvOProoxXBf+XVV/GSHIMknnyBvxO8DubwA70B+QsVgudFBWsvzNJx4CD0rrvuurf5c5ugQDF8IhGlhSWxJREnt2CWisLPUIW8YPjwEWp9Wm8Wx7JkoTAz9teqzHy9FjkDfyMR7927t9o398OFoQ9DNr9Yd594ql69euHU005T+6NQ06rX1tpUqwQVbryQfx6D58h1lSeSdbj/M888U50Xz4/bpss6VGbtZSlUZpJuehJ+z2Nryq3jwEWne6U08t0eKFzaOsG24f8ptFyPyqX9FrhdIDSizHVbx/wc7yB7bMlsBYK1FYZ+rbdr6zqaiLlXKXTr4+g4MLFH3bUMQVgvYEjEz7Ta5AgU1j0RMCoKlYJknSlhCjo9Cwt93HdXibQGKsC+FHwqIVs5nM6m+0PwOrhQCXf3OnTsfXRZMVhHWPXLL/jyyy+xWAgyawcUZM3qkxSTf0wSwsuF4UlnwO1LSkrx008/YtGiRVizZo1SOm3fFGguDN/GCwk/asIEZGdnN2/dMVavXg0JG9XQT7ZEsC5y2GGHNf/afaAyMDP23XffqeInaz5Ubl4DFYH3iGEoj83CJBcqiY6ehU4rBh/4pk2b8OSTT6rqMjs2WWjjA28NKge5xxWXX45bb7ut+du2UVNTi5kzn8Jbb72lvA8Xeolg+2Z4RM/ETBjJ+E033aTaQjrCwgULcMqppyrBJN955JFHcNJJJzX/2n2Y9803uPqaa1TmTavJ8N4FggpOr0Hvt2zZMtWDpqNnYdfAPgj4YHNycnD1VVep+gFbPPhut2CCSzAMUiEQSXAHYHtJdvYg1Z7OQiA9EEOotvZNhWFqtaCgQPVBnSaknC0gHYHXwFCK58a/rYW1O8DzOfe889S5MS3N6wh2HB6fnreioqLN69Sxf9GhYvDB8gEyDPl5yRJFUukRmFJl8x7bPdggyJoDq+FMk54uwsoZ8PztCCAFnM17zBqxRZ3/536Zjbr1llswb9481dnKwh4VkZXuuXPn4s4771Rcg56D50KFvfHGG1X6lvvYX2AP2BVXXKG8BEMmtpv85S9/UZV5poFZe+H9YXvKDTfcoDJx9Bo6eiY6DKUofIyV2T1LMM355z//GXfffbdKjwYDrSCLa1QYxtKtCS/3Set6xx13KOtPsE5y1lln4W9/+5viKO2BisrmwJdffll5GIJcht2yPE8qWGuwu/bkqVPVZ67LdpKTTz5Z/X9PQYXkPWEnAMH78sjDDyvv0Rb4xqQvv5irio+8dh09Cx16DD50Vo8JWkKSRTb8taUUhBbHswAYLAtE68+RdJpS0LreIl6CwtqRUhAUJComW9RZdyDoXahstM57I0xqDyT25AqEWZTyXFHO9pSCiI62qoZHXSl6JjpUDMbJS5cuVZ/ZjjF0D4dDMmPDcQ8cIKSBIQiVjeFRZ0GvwDEdbB3X2td5nrTaDGf2Jdgur/WBcQZAFiN1/L7RoWIwxieRJMgbeqWn71FszFQsBVjjA+PGjcPNN98c1LN0BGan/vSnP+GYY45R/2c2i2MvGM/vSzBpwPCQoLdsz5vuDrhveld6xTXineih+Jnfkci3B/7Oe81FK65q4P+5Dw4hYNhL5W6qH7nUwoxaV5MDgdtq96Q1+D1D4C1btqhrWblypeKq5JKaXLQFng+fc7BjcFvut7CgQHFecldGD7xGXh/luLPX02FLCE+CPUuKVDaHSOMOP7ylpaIr4D5effVV1UzIB0BLz5F57JbdHTC0Y+jisNuVwvHG1MiNYdctW04ClY1Ni5ycgeBYDKZ6d/e4rUGPQWLN49OTsbGR5HpPQaEuyM9XNRF2EM8WIk++t2DhQnU8jrHnw2cyQvOarbF161blRVkXYgjLthx6ft4Pfs/BX0xl8/4xjCV/++ST2Vgvgrp8xXIkS6jKuk9nQAFkfxqFnEJPw6WNoycolMzY8VgMz5lN/FKu55tvvlHJC56f6qKOipLFKs9vV7tNwX/hhRewdctWOc56iTJMKhxlBMKJOJjsYOJmodwjNcZG9sUyw2ZZKH+chqitptdAdFhZYiWbgva1nDxTjIt++EFdBIt3wUhue6DW0pproQ4tPcd37AnCLBaMHDVKjbhbtnw56uQct4o15blSAfYFOHZDCwNpxf7z8suq90vjP7sD3qMff/wRn4hCcIBWjghyawvMwiAN1YknnqhGHw4fPrz5l99AIX3ggQfUu/1ihMsx60fLzEktKKClpaXNawInTD5RnncsHn30EWV0aLxcYhhvvOmm5jXaBxX4/vvvV/eCCQ6G3Rp4X+gZ3nnnHeXVqbCtvR29LfvaJh17LM47bxoOG3fYLtEJrT6PwQbVOHm+rGPRSDMR88EHHyjvp4HDebU+OCokFbxErpfd2zxWe+gwlOJFMuNC7SdoCXgStJK8cV0BM1Wc30jDCWK19/SVV3yALJBxKhgNtIZatmpfgEkGNjMSFN5PxXLRE9L67g6oFOwsuPeee/CWeLnNcs+5X3ohdgNzYBeLg/yOz4MenbyNHqQ1lBcVS14mysC/FCx2En/44YfKOtPwJYiA0chxmIAaC96nj3pOXP8Tseo0Mh2Bx6G3YLcC7z2Ngjb6kUpBr8CiKlP8tOBUCo7jOfjgg5VC0+prAvze+++rgi9D7tbGgGB4VC73ltEMj/WuKBsTL1QK7oeeQhkqWY/7VAon39E4dBYdhlLcaYoIHm8SBydRGXjydHtsEefD6kxYxROke/vqq69aBhPd/PdblAWjcO8peLNpiQjO3scW9MBRgHszlKLR4H1gaMKHRSFhKwitMTuCuzKpG6f0nzfvG1U3Wif3mAJEwbnqqqtw9dVX4/TTT8fJJ52kPK1XngXHyvN4vD6GlRzWqxkxgh6D50UB47Pk+VHpaEz++te/qsQHQz8OA+ZCfsSOBnY3EHzexx133C4jKluDodd9Ysm5PsOvv113HQ4aO1b99qN4vCefeAI/iAekklCx2R3A6znjjDOUx2ObD7uueb48V4ZG3BcNDrOWGqjYNDoEJ7SmXDK0pKFgm881sl/u83AJ9xlJ8P4XCwekrFKh6MkYSnYIuVH+jhaxGP5ffvnFLwdkHlQtEr/75aB+Ic5+URK/w+EIuq22iDL4p0+f7peH1rKPNWvW+sU6Bl2/K4vcHP/MmTNb9isP0S+x+E7rfD5nTsvvcnP8YjF3+n1PF7GU/pdeeskv8WvLceQB+CXk9L/x+ut+UZKg27Vefv31V/9pp53Wsg/xRupcJQzd6R6LtfeLwPnPPPPMlnUHZ2f7/9fqusSb+CUcUb+LAVLnJ5bcL17fn5+f7xeOohYJr9Q18HkIIW7ZJ5/X3XffvdM+gy0PPfhgyzbidfxiPNX3lI2LL7rIL4Krfhs1apRf+IW/qKio5Xp4TB571apV/osvvrhlP6IQ6vz5fLXjCFdq+V0U3S8Rh188j/+JJ57wS0SiroX7FQVS23HfvPfa0pGcakuHoRRBEst+JBFsnHvuueo7WjIyf4ZVzAx9JVYomNsLBImiHFR9pgZz/tbu8BY8PxIqzVIyDOiM++9O0HWzis/Kv9b7JA9BebFbb71VFTNp1duDlhoneSQYFtAKks/RagbGxbxWWkSOf+dgLILcauUvv6j7HAy0mNwHnyGfGffPEIoL7x+vgc+DVpZehODzIhdhiNQWWKx8+T//UZ9pjdmmwxCNMsJBZR8JT9LS2Zdeeqnqmgi8Hh6Tx6aMsVuAmUqC3oD1If4NBkYh9DLseTv//POVZ+a1cL/kJoxkuG8mJ7Ql8B62h86tJSDRY/xJ4nO7KIiWbeANI6G+XFwyWx3YEBgMfCi8EP4leAM7e5KdAW8C3SlBBdWOsy9BYeVDYsZFEyyGA8US+zKMo0DyN3KIYCAn4TxbVCiCCsHhvNp1tQafCQmuVtHndZPUkly3BSotiXp74QSFS+t04H2koWGo2haWLPm5hcST7NJA8Nky7GE6VlNUrZuY9ymYQaSB4/VoikEwm9SWohPkMWeffbYytN2JLkkmHwQ5wQwhhUyNBbZtk8hxYoK0tNSWgmAgeCMCb0Z3Cy+VjgvBh76/WrmpoIyLeS/uuvPO5m+bLC9TprRs9913n7pfgeC9IHdj9k8DiSlj4vZAA3XooYc2/w+KgLZl3algR0+Y0KlUMttltNieSZMPP/hAfQ4G9rDRABCjhONo2THyBAnB1WeCis5jB1MKDeR/5DraOebLPSHB1p5ta3DEJq+/vX3uDnbbZJP8zZnzOSS2V/nvwBObMmUK5jYTvkDQmmjpN1qh7lIO7oNWRXO58eLGtbBqf4HXeruETzQSDC0CExTs87pOyGlgiMCwg0KtWV4aIF4Hi4fCBdpcWnsHehstbGkNKsbI0aOb/9c+eP/YTU1wnxs2bgya6aPSsB5BxaAMXH/99c2/ND1jZs0Ihmr0CDxnZs84/WmwhdEHkwmaB6B35btCgikG16GH4X67G3sUy0RFRarMAlNwTCNqVpoX83833aTia+2C6FozxQoE1hZaT3Wzu+CNDAxPGN8yM7W/wWtmjYO8g7PFM7OjPUTOenKPeF6Nc1ExAoWc06BeetllymMwe9bWwricmaXOgOdDXtFZHH/CCSqsIqigrSMBGiTWtLRroPU+rDkM4m9UUM17kfOxv40GlQu9arCF06KSNzGrRzCLxTRyMPDc+Kz3BrolyOeFMiWozcZB0I1yUBOLegQfSobcuEDFoHWgQOwpqGCsEGvgJAgsZvUUkPSxF4x5/EALR4X57NNPlRBxCfSwtL40NF1ZeI+5XVthBb/vSjsPR0uOFWEl6Bm+XbiwJWQieN+ZgteM0mWiyBp3CXY9FGSS7K4s3Kat6+F9bIt/7Sm6jf0y1mWhiXExQYEnEVwkXoM3iaDFDNRwVkoDb/TugPumy2ZdRUO2WNKuWMZ9AY3Q3iyeNCOgJsCwigLGhx8YbrFIRSLPVvzOLmyqJLkNbMMIBI/BWkdnQSW68KKL1GeGU2vEigdm1mjVly9frjw2j0nSrYHHCgxxSPoZYpNjdXbhPMbMnnEocDDl4P4D71m3Qtxg0Dzu7i7fffttS62Ceehbb7nFX1NTq36TGNovF6tqIPxdbpbK27feR1cW5r9fe+01f3JystqnKJ7/1VdfVfnswPX2dh2jswvrBaw9iDVsOZ8VK1ao8xXC3vLdhAkT/IsXL/ZLXK9y8p1duD7rTtrxAusYYiz8X8ydu9P5tLeIJ1D1KxFMtT3rBbNeekl9zxoB6xsSAajfWKtovT3vsXadElX4haSr7bq6iFK27DOwjsF61QsvvLDTMbtr6TaPoYG5dS2jQEvCKTI9nqaOSZIlvqxEs+Ykm6yD7K7XoLdgdoc1FHoNghmK0UIwtdi4p4EklHn8wPQi42+GQYGNgOyeZZ2IoQItd2cXrh9oqfcEtNK09Kx8E8yaLV22TJ0vOQfbgsghGD6dfsYZap1AMISktScYipE3aZ6xKwvvzb5Gtx+Rsa4mlLwgxokGw28Pijc5MAXJHhe2iewOSO44+QCLSAQVjjynrbl0ewqY8Ql82BRk/p9CxOIaQY7GQVfdlaAgGIywQ7or4LmyvYZgeMwsE4WcDYHbc3LUdyTNNEatwfBKm6hCvFm7xbqehg7vEglUewWW1tAsHUGlYDWSFW4NVArG2hoJ541itoLV3q4QcXoZtmA/+dRTKG32FiwMse+GlnNfgha0rTx7a/B+UuC1Ih6tLXkXLSl5RWACg+/xoAB2dt8dQo7RVetLI0ehZ22BYC+T6nkTL10gykvwBUHBskPsuwrs+OXzYmaLmaaejg7vEquxTAcyVx0sjx0IKhBbnCkoBG8WCz6Brp0ehUSRTXx0kwTz2kxncgYSbdv2QOvDnnxW4bVBSazKs52gs6MLKSAUOCpjZ5b28P777+OZZ55RRqEjsL2CSQctk8PKttagRwvLMIvdrsRaEUJ6VE74oCUw2oIW2mh1kO6CprAnnHCC+j9DV05z9N333yuPzUQHryFY+MZQir9p83/xHNkF3JlsJK+D6f7uvp7OosPuWp7YjBkz1NgAukLeDHoCulj+JWj9+BuLOxyERKtIq33i5Mmqg7N1So3b0pLkiCBpD50cgd27zHJwUrRIicW5DwowbyIfCDs4OWCH+X9WW7VXnjH8+L//+z/VhtGWtwjsruWcuOQ+tF7sImVLdFsLp/chFwoWKmjgOABOPM2u1WKxopyomkIReN08f547pwliBVxLZbJAqgkOhYvGhF6U94LXzWvki3SoPOxyDhRAcjhm/mi0OL6CxTPWAQKzUoHdtfROzBx1NdTkc6bB4v0QYqoME40gn9s5Z5+tXvJDI9c6c8Rnx4jBJjyEGS16CirHqlWrVMTAuocmQwSvh/LAGg+zdZQFclKNpxA8ttZdS07G16axXNDd6LBvQnuADI8Y99IqaQ+dMT1vBk+WD5MPkTeL37GwdcONNyK6jR4WhlRPi5VNePBB1cdPIeCDpSIq5RDFCMxhM3TSCkY8ngb2/bNJjw88kLy2h1p5qAzdglm51uCDYxszm/naA8+J5JQK+NY77yghJMHmJNK8N0XNQyu5aMkGNhYyvaqB10qyy0Y71n84Go3XS8FeLorCgh6FgPef++F94jPhOvTmNAwdeZbdAe8TPTK9PI2Adv40cEeIR6Axaq0UGqjoF19yiRoP8u677ypPSYPEAUZUjmOEv3DgEI0P07+8bt4vLlTyjjzLXkPrNFXrRWLclvRY60Vuhlpaf3/aqaf6t23L6VSLrzxg//vvvecX67HLftpb5GH5J0+e7JfQZJfUbLAlMF3blUUsof/CCy8Muk9tufLyy/1iKIJuL1Yz6D2S0Eu1jgfbH++bKJj/+r/9TaW8tW24HzEWKgXKv633y/OUcG6nfQWma8WI+MVD7vR7ZxemxQNb+7mcdNJJqkWd6dtg22gLf5eIwC+WXqVYA/dhMhrV9UiIvcv1nH766f4NGzbstK99la7tcF4paiyLZ8wcMbYMNkpMAwtMnPyMg0S6CnoDhi30Hu3NLMgw4RoOcBEPwRdNdhaLFy/GjTfcAKtY266AnIhxMhMEbYHWm8NP35Bwao6EeG2BXuSC889XnpS9UJ0hwiTq5FPsytUIeyAYZtCbMaER7BXFHNP92KOPqtcZ84X45IB8hdrugJ2yL8q5bJHwjS8C4mAjDpzidXUW9HB8xgz9gmXcGOaxsMcIgM+X9z8QDMUuuvBC9WZdHvccIf7dNT9YILo0qTOVhC6OcSBDHrpUhjuMI+lqGf6I1jevvftg/MrYmaEC3S9dr+ZSmQh4/PHHW4h7TwPjaC2lycQFhZHtKaztsEWa4cfugKHSxg0bVAaO4RLDNIZWjNN/j2CITjli6Ml3oLCTl608WiJif6PLs53vazDmZDxKsk1yRtx91124Xqw/FVGHjr2BTr1RaX9CyzyQ2DIdSkvDNB49Ezt6d9cC69DRHnq8YhCMJZnl0oqHrD8wzGI4xTi0KzGuDh2dwe9CMQim9thewMEsTAuTc7AqrKUSdeXQ0Z343SgGwRYDkk0OlySxJedg7psJAI4iZH5fh47uwO9KMQi2fLCwyPQuszzM9tB7JCclK6XpTNFOh46O0OOzUsFAT6E1KmpgKJWcnCLeY/9MgqDjj4XfpWLo0LG30bUeZB06DhDoiqFDRxDoiqFDRxDoiqFDRxAYuqPpT4eOPxKoE7rH0KGjFZRidGZMgA4dBxJ0xdChIwgMBgP+HwVYiwCufi3SAAAAAElFTkSuQmCC;" vertex="1" parent="1">
          <mxGeometry x="650" y="483.14" width="73" height="62.31" as="geometry" />
        </mxCell>
        <mxCell id="j9wAFBM-4F8-QUCNC5Rh-11" value="Text" style="text;html=1;strokeColor=none;fillColor=none;align=center;verticalAlign=middle;whiteSpace=wrap;rounded=0;" vertex="1" parent="1">
          <mxGeometry x="90" y="380" width="60" height="30" as="geometry" />
        </mxCell>
      </root>
    </mxGraphModel>
  </diagram>
</mxfile>
